<?xml version="1.0" encoding="UTF-8"?>
<svg version="1.1" xmlns="http://www.w3.org/2000/svg" width="1407" height="838">
<path d="M0 0 C464.31 0 928.62 0 1407 0 C1407 276.54 1407 553.08 1407 838 C942.69 838 478.38 838 0 838 C0 561.46 0 284.92 0 0 Z " fill="#000000" transform="translate(0,0)"/>
<path d="M0 0 C2 3.75 2 3.75 2 6 C3.32 6 4.64 6 6 6 C6 6.66 6 7.32 6 8 C6.99 7.34 7.98 6.68 9 6 C11.8057876 5.79202009 14.50994955 5.69597101 17.31640625 5.69921875 C18.53480446 5.69279106 18.53480446 5.69279106 19.77781677 5.68623352 C21.49338855 5.68049424 23.20898466 5.67998701 24.92456055 5.68432617 C27.55624543 5.68749247 30.18681299 5.66400122 32.81835938 5.63867188 C34.48437358 5.63639955 36.15039081 5.63569508 37.81640625 5.63671875 C38.60600235 5.627509 39.39559845 5.61829926 40.2091217 5.60881042 C42.42407227 5.62768555 42.42407227 5.62768555 46 6 C48 9 48 9 48 13 C48.99 13.495 48.99 13.495 50 14 C49.67 14.66 49.34 15.32 49 16 C50.485 16.495 50.485 16.495 52 17 C52.495 17.99 52.495 17.99 53 19 C54.73161963 20.36640898 54.73161963 20.36640898 57 21 C57.721875 20.649375 58.44375 20.29875 59.1875 19.9375 C63.53129752 18.48956749 66.88656433 20.33311757 71 22 C70.505 23.485 70.505 23.485 70 25 C66.37 25 62.74 25 59 25 C59.495 25.99 59.495 25.99 60 27 C61.98 27 63.96 27 66 27 C65.505 29.475 65.505 29.475 65 32 C65.66 32.33 66.32 32.66 67 33 C67 31.02 67 29.04 67 27 C67.99 27 68.98 27 70 27 C70 28.32 70 29.64 70 31 C70.99 30.34 71.98 29.68 73 29 C72.505 26.03 72.505 26.03 72 23 C72.56589844 22.79246094 73.13179687 22.58492188 73.71484375 22.37109375 C76.00625317 21.40862125 77.98306883 20.4571473 80 19 C81.08916154 15.62649951 81.08916154 15.62649951 81 12 C81.33 10.02 81.66 8.04 82 6 C89.59 6 97.18 6 105 6 C106.2684375 9.774375 106.2684375 9.774375 107.5625 13.625 C107.96770874 14.79603271 107.96770874 14.79603271 108.38110352 15.99072266 C109.79771806 20.36551269 110.20510194 23.42494232 109 28 C109.99 28.33 110.98 28.66 112 29 C112.93554688 31.06616211 112.93554688 31.06616211 113.71875 33.77734375 C114.01136719 34.76669922 114.30398438 35.75605469 114.60546875 36.77539062 C115.04826172 38.34063477 115.04826172 38.34063477 115.5 39.9375 C115.94279297 41.45053711 115.94279297 41.45053711 116.39453125 42.99414062 C116.98404299 45.01068629 117.56612379 47.02941968 118.140625 49.05029297 C118.70579213 50.99016493 119.29888893 52.92215466 119.921875 54.84423828 C120.34726562 56.16077393 120.34726562 56.16077393 120.78125 57.50390625 C121.03970703 58.27677979 121.29816406 59.04965332 121.56445312 59.84594727 C122.05249278 62.25960974 121.5881964 63.65190747 121 66 C121.61875 66.598125 122.2375 67.19625 122.875 67.8125 C125.74350425 70.76537202 125.47630576 72.94136964 126 77 C126.65261641 78.65997453 127.34297739 80.30541213 128.0625 81.9375 C130.03066487 86.57725328 130.37048296 89.99848003 130 95 C130.66 95 131.32 95 132 95 C131.99777939 94.38025803 131.99555878 93.76051605 131.99327087 93.12199402 C131.97117814 86.68216528 131.95607666 80.24234727 131.94506836 73.80249023 C131.94003402 71.39786339 131.93320614 68.99323962 131.92456055 66.58862305 C131.91245571 63.13589725 131.90676274 59.68321186 131.90234375 56.23046875 C131.89718246 55.15226364 131.89202118 54.07405853 131.88670349 52.96318054 C131.88662796 51.96236954 131.88655243 50.96155853 131.88647461 49.93041992 C131.884254 49.04883713 131.88203339 48.16725433 131.87974548 47.25895691 C132 45 132 45 133 42 C133.66 42 134.32 42 135 42 C134.54625 40.906875 134.0925 39.81375 133.625 38.6875 C133.36976563 38.07261719 133.11453125 37.45773437 132.8515625 36.82421875 C131.93193308 34.73466068 131.93193308 34.73466068 130 32 C129.95654297 30.00708008 129.95654297 30.00708008 130.2421875 27.76953125 C130.33886719 26.96708984 130.43554688 26.16464844 130.53515625 25.33789062 C130.64730469 24.50451172 130.75945312 23.67113281 130.875 22.8125 C130.97941406 21.96751953 131.08382812 21.12253906 131.19140625 20.25195312 C131.45059557 18.16665725 131.72394803 16.08313064 132 14 C131.01 13.505 131.01 13.505 130 13 C130.165 12.443125 130.33 11.88625 130.5 11.3125 C131.04068283 8.81184193 131.03384518 6.5510802 131 4 C133.91747073 4.1140575 136.83344495 4.24080268 139.75 4.375 C140.575 4.4059375 141.4 4.436875 142.25 4.46875 C143.04921875 4.50742187 143.8484375 4.54609375 144.671875 4.5859375 C145.4050293 4.6173584 146.13818359 4.6487793 146.89355469 4.68115234 C149.32277837 5.0488582 150.94862896 5.64477527 153 7 C153.66763823 9.52554554 154.05858097 11.68122687 154.3125 14.25 C154.47363281 15.55453125 154.63476562 16.8590625 154.80078125 18.203125 C155.05577476 23.06300128 154.25681985 27.33181198 153 32 C153.66 32 154.32 32 155 32 C155 35.3 155 38.6 155 42 C155.66 42.33 156.32 42.66 157 43 C156.01 43 155.02 43 154 43 C154.34444881 45.47266765 154.34444881 45.47266765 155 48 C155.66 48.33 156.32 48.66 157 49 C156.67 49.99 156.34 50.98 156 52 C155.34 52 154.68 52 154 52 C154.00222061 53.13783432 154.00444122 54.27566864 154.00672913 55.44798279 C154.02695933 66.14630749 154.04197155 76.84462834 154.05181217 87.5429678 C154.05704131 93.04370862 154.06413951 98.54443405 154.07543945 104.04516602 C154.08626725 109.3489656 154.0922766 114.65275035 154.09487724 119.95656013 C154.09673169 121.98485612 154.10035267 124.01315126 154.10573006 126.04144096 C154.11293906 128.87196514 154.113991 131.70242718 154.11352539 134.53295898 C154.11712067 135.38028091 154.12071594 136.22760284 154.12442017 137.1006012 C154.11405216 142.88594784 154.11405216 142.88594784 153 144 C149.55118784 144.33364703 146.08788156 144.32487935 142.625 144.375 C141.65304687 144.41238281 140.68109375 144.44976563 139.6796875 144.48828125 C137.02935679 144.52122735 134.60483403 144.49368137 132 144 C129.3640515 141.15469819 129 139.8513646 129 136 C129.66 136 130.32 136 131 136 C130.67 134.68 130.34 133.36 130 132 C129.34 132.99 128.68 133.98 128 135 C126.49959001 130.71980567 125.0066933 126.4370786 123.52001953 122.15209961 C123.01577569 120.70187897 122.5096612 119.25230709 122.00146484 117.8034668 C118.29060325 107.21832596 115.07528614 96.62537925 112.44995117 85.71386719 C111.88775888 83.57247276 111.00483068 81.6895082 110.0625 79.6875 C108.32237502 75.85046183 107.09192319 72.07651326 106 68 C105.01 65.03 104.02 62.06 103 59 C102.67 87.05 102.34 115.1 102 144 C95.4 144 88.8 144 82 144 C81.86906476 130.23891552 81.73857221 116.47782703 81.60884857 102.71673107 C81.54858865 96.32620675 81.48813839 89.93568435 81.42724609 83.54516602 C81.36843664 77.37248971 81.31013636 71.19980879 81.25218201 65.0271244 C81.23003595 62.677746 81.20770961 60.32836928 81.18519592 57.97899437 C81.15357867 54.67634892 81.12261536 51.37369791 81.09179688 48.07104492 C81.08244614 47.11006393 81.0730954 46.14908295 81.0634613 45.15898132 C81.00476036 38.77248737 80.98978127 32.38674855 81 26 C80.01 26 79.02 26 78 26 C78.495 30.95 78.495 30.95 79 36 C76.69 36 74.38 36 72 36 C72 37.32 72 38.64 72 40 C70.88625 40.0825 69.7725 40.165 68.625 40.25 C64.94246056 40.57873787 64.94246056 40.57873787 63.5625 43.0625 C63.2840625 44.0215625 63.2840625 44.0215625 63 45 C61.68 45 60.36 45 59 45 C58.67 44.01 58.34 43.02 58 42 C56.35 42 54.7 42 53 42 C53 41.34 53 40.68 53 40 C53.66 40 54.32 40 55 40 C55 38.02 55 36.04 55 34 C55.66 33.67 56.32 33.34 57 33 C57.33 32.01 57.66 31.02 58 30 C57.43490723 29.97494385 56.86981445 29.9498877 56.28759766 29.92407227 C53.73316258 29.80820044 51.1791045 29.68543463 48.625 29.5625 C47.73554687 29.52318359 46.84609375 29.48386719 45.9296875 29.44335938 C45.07890625 29.40146484 44.228125 29.35957031 43.3515625 29.31640625 C42.56604004 29.27974854 41.78051758 29.24309082 40.97119141 29.20532227 C39 29 39 29 37 28 C35.1478437 27.90415021 33.29212847 27.87016394 31.4375 27.875 C29.95056641 27.87113281 29.95056641 27.87113281 28.43359375 27.8671875 C26.05187652 27.72561569 26.05187652 27.72561569 25 29 C24.9175951 30.36611528 24.90355216 31.73646061 24.91821289 33.10498047 C24.9247438 33.97613495 24.93127472 34.84728943 24.93800354 35.74484253 C24.94943893 36.69271637 24.96087433 37.64059021 24.97265625 38.6171875 C24.98530418 40.605467 24.99766502 42.59374834 25.00976562 44.58203125 C25.03459624 47.73134017 25.06255889 50.88055489 25.09594727 54.02978516 C25.12610096 57.05892552 25.14391227 60.08794515 25.16015625 63.1171875 C25.17361588 64.06101288 25.1870755 65.00483826 25.20094299 65.9772644 C25.20432175 66.85472321 25.2077005 67.73218201 25.21118164 68.63623047 C25.22236778 69.79419632 25.22236778 69.79419632 25.23377991 70.97555542 C25 73 25 73 23 76 C23.66 76 24.32 76 25 76 C25 76.99 25 77.98 25 79 C24.34 79 23.68 79 23 79 C22.67 77.35 22.34 75.7 22 74 C19.525 74.99 19.525 74.99 17 76 C17.33 76.99 17.66 77.98 18 79 C17.31292969 79.20496094 16.62585938 79.40992188 15.91796875 79.62109375 C15.01691406 79.89050781 14.11585938 80.15992188 13.1875 80.4375 C12.29417969 80.70433594 11.40085937 80.97117187 10.48046875 81.24609375 C8.64526945 81.80387873 6.81966274 82.39344575 5 83 C4.67 80.36 4.34 77.72 4 75 C6.64 75.33 9.28 75.66 12 76 C10.03177114 74.03177114 6.65191291 74.33751619 4 74 C4 59.66666667 4 45.33333333 4 31 C3.69595322 29.32774271 3.36871088 27.65919896 3 26 C1.02 26 -0.96 26 -3 26 C-3 25.34 -3 24.68 -3 24 C-3.99 24.66 -4.98 25.32 -6 26 C-6.99 26 -7.98 26 -9 26 C-9 24.68 -9 23.36 -9 22 C-9.99 22.33 -10.98 22.66 -12 23 C-12 24.32 -12 25.64 -12 27 C-13.98 27 -15.96 27 -18 27 C-18.33 26.01 -18.66 25.02 -19 24 C-18.01 22.515 -18.01 22.515 -17 21 C-16.34 21 -15.68 21 -15 21 C-14.855625 20.195625 -14.71125 19.39125 -14.5625 18.5625 C-14 16 -14 16 -13 15 C-12.95936168 13.33382885 -12.957279 11.66611905 -13 10 C-14.65 9.67 -16.3 9.34 -18 9 C-18 8.01 -18 7.02 -18 6 C-16.35 6 -14.7 6 -13 6 C-13 6.66 -13 7.32 -13 8 C-11.02 7.67 -9.04 7.34 -7 7 C-7.99 7.495 -7.99 7.495 -9 8 C-9 8.66 -9 9.32 -9 10 C-6.36 9.34 -3.72 8.68 -1 8 C-0.67 5.36 -0.34 2.72 0 0 Z " fill="#079867" transform="translate(653,375)"/>
<path d="M0 0 C9.57 0 19.14 0 29 0 C29.495 1.98 29.495 1.98 30 4 C30.66 4 31.32 4 32 4 C32 4.66 32 5.32 32 6 C30.35 6.33 28.7 6.66 27 7 C27 7.99 27 8.98 27 10 C27.66 10.33 28.32 10.66 29 11 C29.33 10.01 29.66 9.02 30 8 C32.72326656 10.72326656 32.65599873 12.82768912 33.25390625 16.6171875 C33.35968491 17.27075226 33.46546356 17.92431702 33.57444763 18.59768677 C33.91146041 20.6889838 34.23734954 22.78182889 34.5625 24.875 C34.89341756 26.96062297 35.22661675 29.04586228 35.56126404 31.13088989 C35.86462167 33.02786237 36.16207162 34.92577677 36.45922852 36.82373047 C36.87472467 39.26418416 37.34693495 41.61544108 38 44 C38.66 44 39.32 44 40 44 C40.66 51.59 41.32 59.18 42 67 C42.99 67 43.98 67 45 67 C45 67.66 45 68.32 45 69 C44.34 69 43.68 69 43 69 C43.31082872 70.75029762 43.62373179 72.50022694 43.9375 74.25 C44.19853516 75.71179688 44.19853516 75.71179688 44.46484375 77.203125 C44.76476554 78.77059946 45.09153561 80.33539765 45.51171875 81.875 C46.25912993 85.12773344 46.5257732 88.43589372 46.875 91.75 C47.5323789 97.70368085 48.40397058 103.56094238 49.5625 109.4375 C51.34578679 118.54669195 52.63950655 127.68953697 52 137 C51 138 51 138 49.14233398 138.11352539 C48.35157471 138.10828857 47.56081543 138.10305176 46.74609375 138.09765625 C45.89208984 138.09443359 45.03808594 138.09121094 44.15820312 138.08789062 C43.26037109 138.07951172 42.36253906 138.07113281 41.4375 138.0625 C40.53580078 138.05798828 39.63410156 138.05347656 38.70507812 138.04882812 C36.46998686 138.03700225 34.23502563 138.0205222 32 138 C30.08456134 134.43519593 29.59872387 131.62124832 29.3125 127.5625 C29.22613281 126.45003906 29.13976562 125.33757812 29.05078125 124.19140625 C29.00417233 121.26221495 29.29612893 118.83136106 30 116 C29.34 116 28.68 116 28 116 C27 109.375 27 109.375 27 106 C25.35492782 105.80593522 23.70890406 105.61992065 22.0625 105.4375 C21.14597656 105.33308594 20.22945313 105.22867188 19.28515625 105.12109375 C18.53105469 105.08113281 17.77695312 105.04117188 17 105 C16.67 105.33 16.34 105.66 16 106 C14.54704215 106.20839236 13.0868369 106.36753581 11.625 106.5 C8.82678686 106.75521162 6.69189489 107.1027017 4 108 C4.061875 109.258125 4.12375 110.51625 4.1875 111.8125 C4.20258605 116.61740565 3.10551428 120.69841056 1.7265625 125.2734375 C1.02054889 127.92288643 0.67126611 130.39772872 0.4375 133.125 C0.293125 134.40375 0.14875 135.6825 0 137 C-2.40059817 138.20029908 -3.89360649 138.11459743 -6.5703125 138.09765625 C-7.46621094 138.09443359 -8.36210937 138.09121094 -9.28515625 138.08789062 C-10.22230469 138.07951172 -11.15945313 138.07113281 -12.125 138.0625 C-13.06988281 138.05798828 -14.01476562 138.05347656 -14.98828125 138.04882812 C-17.32558387 138.03702357 -19.66276061 138.02055759 -22 138 C-22.15112296 131.80395859 -21.60546842 125.93685648 -20.6875 119.8125 C-20.56955078 118.93658203 -20.45160156 118.06066406 -20.33007812 117.15820312 C-19.62110831 112.36265855 -18.67878698 109.10941981 -16 105 C-15.47041873 102.51340643 -15.47041873 102.51340643 -15.375 100 C-15.12264472 96.57806239 -14.70742998 93.3602924 -14 90 C-13.63383567 87.3365307 -13.31677997 84.67000259 -13 82 C-12.34 82 -11.68 82 -11 82 C-11.185625 81.071875 -11.37125 80.14375 -11.5625 79.1875 C-12 76 -12 76 -11 73 C-8.94921875 72.77213542 -6.8984375 72.54427083 -4.84765625 72.31640625 C-2.98859771 72.18113386 -2.98859771 72.18113386 -2 71 C0.67058851 70.85884839 3.32432238 70.95752893 6 71 C5.65555119 68.52733235 5.65555119 68.52733235 5 66 C4.34 65.67 3.68 65.34 3 65 C3.66 64.34 4.32 63.68 5 63 C5.39764263 61.01178687 5.73775349 59.01055661 6 57 C4.35 57 2.7 57 1 57 C1 57.66 1 58.32 1 59 C2.485 59.495 2.485 59.495 4 60 C2.68 60.66 1.36 61.32 0 62 C0 60.68 0 59.36 0 58 C-0.66 58 -1.32 58 -2 58 C-1.67 59.98 -1.34 61.96 -1 64 C-1.99 64 -2.98 64 -4 64 C-4.33 64.99 -4.66 65.98 -5 67 C-7.5 65.625 -7.5 65.625 -10 64 C-10 63.34 -10 62.68 -10 62 C-9.34 62 -8.68 62 -8 62 C-8 61.34 -8 60.68 -8 60 C-6.68 60 -5.36 60 -4 60 C-4.34224609 59.12988281 -4.34224609 59.12988281 -4.69140625 58.2421875 C-6.46390499 53.42544204 -7.44276418 50.11525483 -6 45 C-5.34 45 -4.68 45 -4 45 C-4 44.34 -4 43.68 -4 43 C-4.66 43 -5.32 43 -6 43 C-5.85919445 40.22882696 -5.71256882 37.45817359 -5.5625 34.6875 C-5.52318359 33.90181641 -5.48386719 33.11613281 -5.44335938 32.30664062 C-5.40146484 31.54931641 -5.35957031 30.79199219 -5.31640625 30.01171875 C-5.27974854 29.31522217 -5.24309082 28.61872559 -5.20532227 27.90112305 C-5 26 -5 26 -4 23 C-3.67 24.32 -3.34 25.64 -3 27 C-2.34 27 -1.68 27 -1 27 C-0.95101563 26.36191406 -0.90203125 25.72382813 -0.8515625 25.06640625 C-0.77679688 24.24011719 -0.70203125 23.41382813 -0.625 22.5625 C-0.55539062 21.73878906 -0.48578125 20.91507812 -0.4140625 20.06640625 C-0.27742188 19.38449219 -0.14078125 18.70257813 0 18 C0.66 17.67 1.32 17.34 2 17 C1.01 16.67 0.02 16.34 -1 16 C-1.02692484 13.70839681 -1.04636124 11.41670454 -1.0625 9.125 C-1.07410156 7.84882813 -1.08570313 6.57265625 -1.09765625 5.2578125 C-1 2 -1 2 0 0 Z " fill="#01DA91" transform="translate(453,381)"/>
<path d="M0 0 C0.79162033 0.00202423 1.58324066 0.00404846 2.39884949 0.00613403 C3.20920151 0.00517731 4.01955353 0.00422058 4.85446167 0.00323486 C6.5736041 0.00255285 8.29274908 0.00440861 10.0118866 0.00857544 C12.63898047 0.01390276 15.26590174 0.00864193 17.89299011 0.00222778 C19.56161028 0.00288897 21.23023034 0.00417096 22.89884949 0.00613403 C23.68439713 0.0041098 24.46994476 0.00208557 25.27929688 0 C30.90975219 0.02407377 30.90975219 0.02407377 33.52523804 0.70953369 C34.42753899 0.92209305 34.42753899 0.92209305 35.34806824 1.13894653 C35.67806824 0.80894653 36.00806824 0.47894653 36.34806824 0.13894653 C39.82063738 -0.16972628 41.73529703 -0.24806686 44.72306824 1.63894653 C45.25931824 2.13394653 45.79556824 2.62894653 46.34806824 3.13894653 C45.68806824 3.13894653 45.02806824 3.13894653 44.34806824 3.13894653 C44.01806824 6.43894653 43.68806824 9.73894653 43.34806824 13.13894653 C42.35806824 13.13894653 41.36806824 13.13894653 40.34806824 13.13894653 C40.34806824 13.79894653 40.34806824 14.45894653 40.34806824 15.13894653 C43.22974505 15.94547162 45.90838371 16.31409659 48.89494324 16.45535278 C49.73927917 16.49724731 50.58361511 16.53914185 51.45353699 16.58230591 C52.76257996 16.64128052 52.76257996 16.64128052 54.09806824 16.70144653 C55.43031433 16.76622192 55.43031433 16.76622192 56.78947449 16.83230591 C58.97552787 16.93808268 61.16168913 17.040172 63.34806824 17.13894653 C63.67806824 16.47894653 64.00806824 15.81894653 64.34806824 15.13894653 C65.33806824 17.61394653 65.33806824 17.61394653 66.34806824 20.13894653 C63.95215786 20.16607005 61.55655867 20.18584474 59.16056824 20.20144653 C58.48703308 20.20982544 57.81349792 20.21820435 57.11955261 20.22683716 C53.37928466 20.24508237 49.99409417 19.93528072 46.34806824 19.13894653 C43.87540059 19.48339534 43.87540059 19.48339534 41.34806824 20.13894653 C39.34806824 20.47227987 37.34806824 20.8056132 35.34806824 21.13894653 C34.59396667 21.31425903 33.83986511 21.48957153 33.06291199 21.67019653 C28.90654928 22.38784189 24.80707807 22.15588178 20.60197449 22.07644653 C17.35669397 22.05846593 17.35669397 22.05846593 14.23478699 22.66629028 C11.46370157 23.12001333 9.36061524 23.08725051 6.59806824 22.70144653 C3.48260244 22.27790987 3.48260244 22.27790987 0.34806824 22.13894653 C0.67806824 23.12894653 1.00806824 24.11894653 1.34806824 25.13894653 C0.35806824 25.46894653 -0.63193176 25.79894653 -1.65193176 26.13894653 C-0.00193176 27.12894653 1.64806824 28.11894653 3.34806824 29.13894653 C3.67806824 28.47894653 4.00806824 27.81894653 4.34806824 27.13894653 C4.34806824 28.45894653 4.34806824 29.77894653 4.34806824 31.13894653 C-1.52693176 30.26394653 -1.52693176 30.26394653 -2.65193176 29.13894653 C-3.31193176 29.79894653 -3.97193176 30.45894653 -4.65193176 31.13894653 C-4.65193176 30.47894653 -4.65193176 29.81894653 -4.65193176 29.13894653 C-5.97193176 29.13894653 -7.29193176 29.13894653 -8.65193176 29.13894653 C-8.32193176 30.45894653 -7.99193176 31.77894653 -7.65193176 33.13894653 C-8.31193176 33.13894653 -8.97193176 33.13894653 -9.65193176 33.13894653 C-9.65193176 32.14894653 -9.65193176 31.15894653 -9.65193176 30.13894653 C-10.97193176 30.13894653 -12.29193176 30.13894653 -13.65193176 30.13894653 C-12.64032328 34.53209446 -12.64032328 34.53209446 -9.52693176 37.51394653 C-8.90818176 37.72019653 -8.28943176 37.92644653 -7.65193176 38.13894653 C-7.98193176 37.14894653 -8.31193176 36.15894653 -8.65193176 35.13894653 C-6.67193176 35.13894653 -4.69193176 35.13894653 -2.65193176 35.13894653 C-2.31859843 36.47227987 -1.9852651 37.8056132 -1.65193176 39.13894653 C-1.44568176 39.84019653 -1.23943176 40.54144653 -1.02693176 41.26394653 C-0.65193176 43.13894653 -0.65193176 43.13894653 -1.65193176 45.13894653 C-0.50724426 44.98425903 -0.50724426 44.98425903 0.66056824 44.82644653 C1.54744324 44.92957153 2.43431824 45.03269653 3.34806824 45.13894653 C5.16056824 47.63894653 5.16056824 47.63894653 6.34806824 50.13894653 C4.03806824 50.13894653 1.72806824 50.13894653 -0.65193176 50.13894653 C-0.65193176 50.46894653 -0.65193176 50.79894653 -0.65193176 51.13894653 C0.46181824 51.24207153 1.57556824 51.34519653 2.72306824 51.45144653 C4.51744324 51.79175903 4.51744324 51.79175903 6.34806824 52.13894653 C7.00806824 53.12894653 7.66806824 54.11894653 8.34806824 55.13894653 C10.40731963 55.8627712 10.40731963 55.8627712 12.34806824 56.13894653 C12.34806824 56.79894653 12.34806824 57.45894653 12.34806824 58.13894653 C13.14470886 58.10414185 13.94134949 58.06933716 14.76213074 58.03347778 C25.28655681 57.76460558 25.28655681 57.76460558 30.34806824 61.13894653 C29.35806824 61.63394653 29.35806824 61.63394653 28.34806824 62.13894653 C29.00806824 63.45894653 29.66806824 64.77894653 30.34806824 66.13894653 C28.36806824 67.12894653 28.36806824 67.12894653 26.34806824 68.13894653 C26.67806824 69.12894653 27.00806824 70.11894653 27.34806824 71.13894653 C26.57381835 74.29124964 25.80237931 77.23032439 24.34806824 80.13894653 C20.34813076 80.19750418 16.34830516 80.23272952 12.34806824 80.26394653 C11.22271667 80.28070435 10.09736511 80.29746216 8.93791199 80.31472778 C2.69774892 80.35121996 -2.68401652 79.99660643 -8.65193176 78.13894653 C-8.65193176 78.79894653 -8.65193176 79.45894653 -8.65193176 80.13894653 C-7.00193176 80.13894653 -5.35193176 80.13894653 -3.65193176 80.13894653 C-2.2713621 84.28065553 -2.24333034 88.2982457 -2.02693176 92.63894653 C-1.94958801 93.91125122 -1.94958801 93.91125122 -1.87068176 95.20925903 C-1.59046277 100.66528765 -1.85012504 105.86711897 -2.41609192 111.2961731 C-2.82972301 116.2820121 -2.71634835 121.26521925 -2.65193176 126.26394653 C-2.62656924 128.30816619 -2.60548658 130.35244509 -2.58943176 132.39675903 C-2.5778302 133.28508423 -2.56622864 134.17340942 -2.55427551 135.08865356 C-2.65193176 137.13894653 -2.65193176 137.13894653 -3.65193176 138.13894653 C-11.17431982 138.3777525 -11.17431982 138.3777525 -13.65193176 137.13894653 C-13.65193176 137.79894653 -13.65193176 138.45894653 -13.65193176 139.13894653 C-16.95193176 138.80894653 -20.25193176 138.47894653 -23.65193176 138.13894653 C-23.65193176 129.88894653 -23.65193176 121.63894653 -23.65193176 113.13894653 C-21.67193176 112.64394653 -21.67193176 112.64394653 -19.65193176 112.13894653 C-19.65193176 111.47894653 -19.65193176 110.81894653 -19.65193176 110.13894653 C-18.66193176 110.46894653 -17.67193176 110.79894653 -16.65193176 111.13894653 C-16.65193176 111.79894653 -16.65193176 112.45894653 -16.65193176 113.13894653 C-15.86818176 113.09769653 -15.08443176 113.05644653 -14.27693176 113.01394653 C-11.65193176 113.13894653 -11.65193176 113.13894653 -9.65193176 115.13894653 C-8.99193176 113.81894653 -8.33193176 112.49894653 -7.65193176 111.13894653 C-11.28193176 110.47894653 -14.91193176 109.81894653 -18.65193176 109.13894653 C-19.14693176 106.66394653 -19.14693176 106.66394653 -19.65193176 104.13894653 C-20.97193176 105.12894653 -22.29193176 106.11894653 -23.65193176 107.13894653 C-23.65193176 103.83894653 -23.65193176 100.53894653 -23.65193176 97.13894653 C-22.99193176 97.13894653 -22.33193176 97.13894653 -21.65193176 97.13894653 C-21.67255676 96.25207153 -21.69318176 95.36519653 -21.71443176 94.45144653 C-21.65906957 91.51725022 -21.32135836 88.98400957 -20.65193176 86.13894653 C-19.99193176 86.13894653 -19.33193176 86.13894653 -18.65193176 86.13894653 C-18.65193176 85.47894653 -18.65193176 84.81894653 -18.65193176 84.13894653 C-22.61193176 83.64394653 -22.61193176 83.64394653 -26.65193176 83.13894653 C-26.65193176 85.11894653 -26.65193176 87.09894653 -26.65193176 89.13894653 C-27.64193176 89.63394653 -27.64193176 89.63394653 -28.65193176 90.13894653 C-28.65193176 87.49894653 -28.65193176 84.85894653 -28.65193176 82.13894653 C-27.16693176 81.64394653 -27.16693176 81.64394653 -25.65193176 81.13894653 C-24.99193176 81.46894653 -24.33193176 81.79894653 -23.65193176 82.13894653 C-23.83755676 81.45832153 -24.02318176 80.77769653 -24.21443176 80.07644653 C-24.73848724 76.55778833 -24.23449973 73.63435435 -23.65193176 70.13894653 C-23.65193176 69.14894653 -23.65193176 68.15894653 -23.65193176 67.13894653 C-22.99193176 67.13894653 -22.33193176 67.13894653 -21.65193176 67.13894653 C-21.32193176 67.79894653 -20.99193176 68.45894653 -20.65193176 69.13894653 C-19.00193176 69.13894653 -17.35193176 69.13894653 -15.65193176 69.13894653 C-15.65193176 68.14894653 -15.65193176 67.15894653 -15.65193176 66.13894653 C-14.00193176 66.13894653 -12.35193176 66.13894653 -10.65193176 66.13894653 C-10.98193176 65.56144653 -11.31193176 64.98394653 -11.65193176 64.38894653 C-12.65193176 62.13894653 -12.65193176 62.13894653 -12.65193176 58.13894653 C-14.63193176 58.63394653 -14.63193176 58.63394653 -16.65193176 59.13894653 C-16.98193176 60.45894653 -17.31193176 61.77894653 -17.65193176 63.13894653 C-19.64333736 63.52027952 -21.64472253 63.85220236 -23.65193176 64.13894653 C-24.65193176 63.13894653 -24.65193176 63.13894653 -24.78474426 60.37332153 C-24.78216614 59.22347778 -24.77958801 58.07363403 -24.77693176 56.88894653 C-24.78079895 55.17964966 -24.78079895 55.17964966 -24.78474426 53.43582153 C-24.65193176 50.13894653 -24.65193176 50.13894653 -24.13630676 47.81082153 C-23.25807296 42.96637055 -23.69398686 37.99386053 -23.86677551 33.08816528 C-23.95100055 28.22608339 -23.77837705 25.13293946 -20.65193176 21.13894653 C-21.64193176 21.46894653 -22.63193176 21.79894653 -23.65193176 22.13894653 C-23.98193176 19.16894653 -24.31193176 16.19894653 -24.65193176 13.13894653 C-22.98130676 12.73675903 -22.98130676 12.73675903 -21.27693176 12.32644653 C-17.43352225 11.48085635 -17.43352225 11.48085635 -15.65193176 8.13894653 C-13.26911926 7.40847778 -13.26911926 7.40847778 -10.52693176 6.95144653 C-9.16181458 6.7136145 -9.16181458 6.7136145 -7.76911926 6.47097778 C-6.72111145 6.30662231 -6.72111145 6.30662231 -5.65193176 6.13894653 C-5.83755676 5.33457153 -6.02318176 4.53019653 -6.21443176 3.70144653 C-6.35880676 2.85582153 -6.50318176 2.01019653 -6.65193176 1.13894653 C-4.85013834 -0.66284689 -2.39816701 0.01038692 0 0 Z " fill="#00F09E" transform="translate(351.6519317626953,378.8610534667969)"/>
<path d="M0 0 C1 1 1 1 1.11352539 4.96899414 C1.1133662 6.74105607 1.10766785 8.5131226 1.09765625 10.28515625 C1.0962413 11.21597519 1.09482635 12.14679413 1.09336853 13.1058197 C1.08775172 16.09141191 1.0751964 19.07693029 1.0625 22.0625 C1.05748716 24.08137913 1.05292388 26.10025943 1.04882812 28.11914062 C1.03777683 33.07945572 1.02050095 38.03971532 1 43 C2.485 42.505 2.485 42.505 4 42 C4.33 42.66 4.66 43.32 5 44 C4.34 44 3.68 44 3 44 C3 44.66 3 45.32 3 46 C3.66 46 4.32 46 5 46 C5 46.66 5 47.32 5 48 C3.515 48.495 3.515 48.495 2 49 C1.34 48.01 0.68 47.02 0 46 C-0.09087891 47.06541016 -0.09087891 47.06541016 -0.18359375 48.15234375 C-0.26738281 49.07144531 -0.35117187 49.99054688 -0.4375 50.9375 C-0.55931641 52.31228516 -0.55931641 52.31228516 -0.68359375 53.71484375 C-1 56 -1 56 -2 57 C-2.33856828 62.32673036 -2.33856828 62.32673036 0 67 C0.99 67 1.98 67 3 67 C2.67 65.02 2.34 63.04 2 61 C3.875 61.1875 3.875 61.1875 6 62 C7.25 64.5625 7.25 64.5625 8 67 C8.99 67 9.98 67 11 67 C11.268125 66.2575 11.53625 65.515 11.8125 64.75 C12.98609071 62.03221098 13.98564577 60.16052053 16 58 C18.234375 57.57421875 18.234375 57.57421875 20.75 57.6875 C21.62914062 57.72230469 22.50828125 57.75710938 23.4140625 57.79296875 C26.64961352 58.05200833 29.80202464 58.44383037 33 59 C32.7215625 60.4540625 32.7215625 60.4540625 32.4375 61.9375 C32.293125 62.948125 32.14875 63.95875 32 65 C32.33 65.33 32.66 65.66 33 66 C33.23192865 67.51469448 33.41215238 69.03754562 33.5625 70.5625 C33.64628906 71.38878906 33.73007812 72.21507812 33.81640625 73.06640625 C33.87699219 73.70449219 33.93757812 74.34257812 34 75 C32.68 74.67 31.36 74.34 30 74 C30 73.01 30 72.02 30 71 C27.03 71.99 27.03 71.99 24 73 C23.9175 73.78375 23.835 74.5675 23.75 75.375 C23 78 23 78 21.3125 79.4375 C18.07768067 80.22434795 16.02223517 79.23636893 13 78 C12.505 73.545 12.505 73.545 12 69 C10.02 69.495 10.02 69.495 8 70 C7.01 74.95 7.01 74.95 6 80 C4.35 80 2.7 80 1 80 C0.505 79.505 0.505 79.505 0 79 C-1.27529831 83.79763802 -1.01635547 88.40536019 -0.84375 93.31640625 C-0.81776733 94.20988266 -0.79178467 95.10335907 -0.76501465 96.02391052 C-0.68208035 98.87030091 -0.59191102 101.71638619 -0.5 104.5625 C-0.37908725 108.31364396 -0.26546215 112.0649055 -0.15625 115.81640625 C-0.12607788 116.67690079 -0.09590576 117.53739532 -0.06481934 118.42396545 C-0.04149536 119.2283757 -0.01817139 120.03278595 0.00585938 120.86157227 C0.04036194 121.91816795 0.04036194 121.91816795 0.07556152 122.99610901 C0 125 0 125 -0.62145996 127.06724548 C-1.29158236 129.31533212 -1.29158236 129.31533212 0.9375 132.0625 C1.618125 133.031875 2.29875 134.00125 3 135 C3 135.99 3 136.98 3 138 C0.73744135 139.13127933 -0.51787909 139.12890585 -3.02734375 139.1328125 C-3.81947266 139.13410156 -4.61160156 139.13539063 -5.42773438 139.13671875 C-6.25595703 139.13285156 -7.08417969 139.12898437 -7.9375 139.125 C-9.1740332 139.13080078 -9.1740332 139.13080078 -10.43554688 139.13671875 C-11.22896484 139.13542969 -12.02238281 139.13414062 -12.83984375 139.1328125 C-13.56550537 139.13168457 -14.29116699 139.13055664 -15.03881836 139.12939453 C-17 139 -17 139 -20 138 C-20 137.34 -20 136.68 -20 136 C-19.34 136 -18.68 136 -18 136 C-18.185625 134.906875 -18.37125 133.81375 -18.5625 132.6875 C-19 129 -19 129 -18 126 C-18.66 126 -19.32 126 -20 126 C-20.71917856 121.47275332 -21.12601835 117.12809809 -21.12939453 112.5456543 C-21.13254669 111.31135178 -21.13569885 110.07704926 -21.13894653 108.80534363 C-21.1369223 107.49157242 -21.13489807 106.17780121 -21.1328125 104.82421875 C-21.13348694 103.44895918 -21.13445814 102.07369972 -21.13571167 100.69844055 C-21.13717956 97.82979181 -21.13506177 94.96117438 -21.13037109 92.0925293 C-21.12464731 88.41264987 -21.12797519 84.73284295 -21.13394356 81.05296612 C-21.13755081 78.21946156 -21.13641029 75.38597432 -21.13381577 72.55246925 C-21.13314834 71.19486291 -21.13396848 69.83725501 -21.13629532 68.4796505 C-21.13882739 66.58889164 -21.13428559 64.69812727 -21.12939453 62.80737305 C-21.12859894 61.73150436 -21.12780334 60.65563568 -21.12698364 59.54716492 C-21 57 -21 57 -20 55 C-20.99 55 -21.98 55 -23 55 C-23.02497634 49.25659491 -23.04298902 43.5132224 -23.05493164 37.76977539 C-23.05991766 35.82152759 -23.06670888 33.87328345 -23.07543945 31.92504883 C-23.12210705 21.23267906 -23.11012883 10.64697405 -22 0 C-14.25320583 -2.36342873 -7.87168429 -1.81564147 0 0 Z " fill="#097F57" transform="translate(863,379)"/>
<path d="M0 0 C0.66 0 1.32 0 2 0 C2.33 1.65 2.66 3.3 3 5 C4.32 5.33 5.64 5.66 7 6 C7 6.66 7 7.32 7 8 C7.66 7.34 8.32 6.68 9 6 C11.86888581 5.82467711 14.63992645 5.76862386 17.5078125 5.8046875 C18.76874222 5.80893234 18.76874222 5.80893234 20.05514526 5.81326294 C22.74524046 5.8244757 25.4350051 5.84958197 28.125 5.875 C29.94660978 5.8850284 31.76822477 5.89415449 33.58984375 5.90234375 C38.06002358 5.92441858 42.52995571 5.95895566 47 6 C47.28875 6.94875 47.5775 7.8975 47.875 8.875 C48.76825109 12.05211578 48.76825109 12.05211578 51 14 C50.67 14.66 50.34 15.32 50 16 C52.35277269 18.72426311 54.62496331 19.8141763 58 21 C58.495 20.505 58.495 20.505 59 20 C60.9609375 20.05078125 60.9609375 20.05078125 63.375 20.3125 C64.56222656 20.43044922 64.56222656 20.43044922 65.7734375 20.55078125 C68 21 68 21 71 23 C71 23.66 71 24.32 71 25 C67.04 25 63.08 25 59 25 C59 25.66 59 26.32 59 27 C61.31 27.33 63.62 27.66 66 28 C65.505 30.475 65.505 30.475 65 33 C65.66 32.67 66.32 32.34 67 32 C67.65555119 29.47266765 67.65555119 29.47266765 68 27 C68.66 27 69.32 27 70 27 C70.495 28.485 70.495 28.485 71 30 C71.99 29.67 72.98 29.34 74 29 C73.505 26.03 73.505 26.03 73 23 C74.134375 22.54625 75.26875 22.0925 76.4375 21.625 C80.04721692 20.42904194 80.04721692 20.42904194 81 18 C81.66 18 82.32 18 83 18 C83 18.99 83 19.98 83 21 C83.99 20.34 84.98 19.68 86 19 C88.04296875 18.8046875 88.04296875 18.8046875 90.1875 18.875 C91.445625 18.91625 92.70375 18.9575 94 19 C94 19.99 94 20.98 94 22 C92.35 22.33 90.7 22.66 89 23 C89.495 24.485 89.495 24.485 90 26 C89.34 26 88.68 26 88 26 C88 26.66 88 27.32 88 28 C84.14354879 28.22036864 81.50776784 27.60355101 78 26 C78 26.99 78 27.98 78 29 C78.66 29 79.32 29 80 29 C80.04254356 30.99954746 80.04080783 33.00041636 80 35 C79 36 79 36 75.9375 36.0625 C74.968125 36.041875 73.99875 36.02125 73 36 C73 37.32 73 38.64 73 40 C71.56260487 40.02712066 70.12506137 40.04645067 68.6875 40.0625 C67.88699219 40.07410156 67.08648438 40.08570313 66.26171875 40.09765625 C64 40 64 40 61 39 C60.360625 39.495 59.72125 39.99 59.0625 40.5 C57 42 57 42 54.75 41.6875 C54.1725 41.460625 53.595 41.23375 53 41 C53.99 40.67 54.98 40.34 56 40 C56 38.02 56 36.04 56 34 C56.99 33.67 57.98 33.34 59 33 C59 32.01 59 31.02 59 30 C58.10692139 29.96241577 58.10692139 29.96241577 57.19580078 29.92407227 C54.50530864 29.80822506 51.8151766 29.68544804 49.125 29.5625 C48.18785156 29.52318359 47.25070312 29.48386719 46.28515625 29.44335938 C45.38925781 29.40146484 44.49335937 29.35957031 43.5703125 29.31640625 C42.74289551 29.27974854 41.91547852 29.24309082 41.06298828 29.20532227 C39 29 39 29 37 28 C35.12620395 27.92966231 33.24998898 27.9156978 31.375 27.9375 C29.87066406 27.95103516 29.87066406 27.95103516 28.3359375 27.96484375 C27.17964844 27.98224609 27.17964844 27.98224609 26 28 C26.00523682 28.94093506 26.01047363 29.88187012 26.01586914 30.85131836 C26.18272378 65.35643634 26.18272378 65.35643634 25 79 C24.34 79 23.68 79 23 79 C23 77.68 23 76.36 23 75 C20.525 75.495 20.525 75.495 18 76 C18.33 76.99 18.66 77.98 19 79 C17.04486839 79.696553 15.08577524 80.38199565 13.125 81.0625 C12.03445313 81.44535156 10.94390625 81.82820313 9.8203125 82.22265625 C7 83 7 83 5 82 C5.33 81.34 5.66 80.68 6 80 C5.34 80 4.68 80 4 80 C4 78.35 4 76.7 4 75 C6.97 75.33 9.94 75.66 13 76 C10.03 75.34 7.06 74.68 4 74 C3.95058618 68.64316151 3.91427393 63.2864555 3.89013672 57.92944336 C3.88007509 56.10682871 3.8664244 54.28423021 3.84912109 52.46166992 C3.82487979 49.84289565 3.81351862 47.22433469 3.8046875 44.60546875 C3.79436493 43.78974899 3.78404236 42.97402924 3.77340698 42.1335907 C3.7726314 38.22869244 3.78349339 36.32475992 6 33 C5.34 32.01 4.68 31.02 4 30 C4 28.68 4 27.36 4 26 C2.6078125 26.061875 2.6078125 26.061875 1.1875 26.125 C-2 26 -2 26 -5 24 C-5 24.66 -5 25.32 -5 26 C-6.875 25.875 -6.875 25.875 -9 25 C-10.25 21.9375 -10.25 21.9375 -11 19 C-11.99 19.33 -12.98 19.66 -14 20 C-13.79375 19.21625 -13.5875 18.4325 -13.375 17.625 C-13.189375 16.325625 -13.189375 16.325625 -13 15 C-13.66 14.34 -14.32 13.68 -15 13 C-14.01 13 -13.02 13 -12 13 C-12 12.01 -12 11.02 -12 10 C-13.65 9.67 -15.3 9.34 -17 9 C-17.33 8.01 -17.66 7.02 -18 6 C-16.35 6 -14.7 6 -13 6 C-13 6.66 -13 7.32 -13 8 C-9.535 7.505 -9.535 7.505 -6 7 C-6.99 7.495 -6.99 7.495 -8 8 C-8 8.66 -8 9.32 -8 10 C-6.68 10 -5.36 10 -4 10 C-3.67 9.34 -3.34 8.68 -3 8 C-1.68 8 -0.36 8 1 8 C0.67 5.36 0.34 2.72 0 0 Z " fill="#0B694A" transform="translate(954,375)"/>
<path d="M0 0 C2 3.75 2 3.75 2 6 C3.32 6 4.64 6 6 6 C6 6.66 6 7.32 6 8 C6.99 7.34 7.98 6.68 9 6 C11.8057876 5.79202009 14.50994955 5.69597101 17.31640625 5.69921875 C18.53480446 5.69279106 18.53480446 5.69279106 19.77781677 5.68623352 C21.49338855 5.68049424 23.20898466 5.67998701 24.92456055 5.68432617 C27.55624543 5.68749247 30.18681299 5.66400122 32.81835938 5.63867188 C34.48437358 5.63639955 36.15039081 5.63569508 37.81640625 5.63671875 C38.60600235 5.627509 39.39559845 5.61829926 40.2091217 5.60881042 C42.42407227 5.62768555 42.42407227 5.62768555 46 6 C48 9 48 9 48 13 C48.99 13.495 48.99 13.495 50 14 C49.67 14.66 49.34 15.32 49 16 C50.485 16.495 50.485 16.495 52 17 C52.495 17.99 52.495 17.99 53 19 C54.73161963 20.36640898 54.73161963 20.36640898 57 21 C57.721875 20.649375 58.44375 20.29875 59.1875 19.9375 C63.53129752 18.48956749 66.88656433 20.33311757 71 22 C70.505 23.485 70.505 23.485 70 25 C66.37 25 62.74 25 59 25 C59.495 25.99 59.495 25.99 60 27 C61.98 27 63.96 27 66 27 C65.505 29.475 65.505 29.475 65 32 C65.66 32.33 66.32 32.66 67 33 C67 31.02 67 29.04 67 27 C67.99 27 68.98 27 70 27 C70 28.32 70 29.64 70 31 C70.99 30.34 71.98 29.68 73 29 C72.505 26.03 72.505 26.03 72 23 C74.97 21.68 77.94 20.36 81 19 C81.495 21.97 81.495 21.97 82 25 C80.68 25.33 79.36 25.66 78 26 C78.495 30.95 78.495 30.95 79 36 C76.69 36 74.38 36 72 36 C72 37.32 72 38.64 72 40 C70.88625 40.0825 69.7725 40.165 68.625 40.25 C64.94246056 40.57873787 64.94246056 40.57873787 63.5625 43.0625 C63.2840625 44.0215625 63.2840625 44.0215625 63 45 C61.68 45 60.36 45 59 45 C58.67 44.01 58.34 43.02 58 42 C56.35 42 54.7 42 53 42 C53 41.34 53 40.68 53 40 C53.66 40 54.32 40 55 40 C55 38.02 55 36.04 55 34 C55.66 33.67 56.32 33.34 57 33 C57.33 32.01 57.66 31.02 58 30 C57.43490723 29.97494385 56.86981445 29.9498877 56.28759766 29.92407227 C53.73316258 29.80820044 51.1791045 29.68543463 48.625 29.5625 C47.73554687 29.52318359 46.84609375 29.48386719 45.9296875 29.44335938 C45.07890625 29.40146484 44.228125 29.35957031 43.3515625 29.31640625 C42.56604004 29.27974854 41.78051758 29.24309082 40.97119141 29.20532227 C39 29 39 29 37 28 C35.1478437 27.90415021 33.29212847 27.87016394 31.4375 27.875 C29.95056641 27.87113281 29.95056641 27.87113281 28.43359375 27.8671875 C26.05187652 27.72561569 26.05187652 27.72561569 25 29 C24.9175951 30.36611528 24.90355216 31.73646061 24.91821289 33.10498047 C24.9247438 33.97613495 24.93127472 34.84728943 24.93800354 35.74484253 C24.94943893 36.69271637 24.96087433 37.64059021 24.97265625 38.6171875 C24.98530418 40.605467 24.99766502 42.59374834 25.00976562 44.58203125 C25.03459624 47.73134017 25.06255889 50.88055489 25.09594727 54.02978516 C25.12610096 57.05892552 25.14391227 60.08794515 25.16015625 63.1171875 C25.17361588 64.06101288 25.1870755 65.00483826 25.20094299 65.9772644 C25.20432175 66.85472321 25.2077005 67.73218201 25.21118164 68.63623047 C25.22236778 69.79419632 25.22236778 69.79419632 25.23377991 70.97555542 C25 73 25 73 23 76 C23.66 76 24.32 76 25 76 C25 76.99 25 77.98 25 79 C24.34 79 23.68 79 23 79 C22.67 77.35 22.34 75.7 22 74 C19.525 74.99 19.525 74.99 17 76 C17.33 76.99 17.66 77.98 18 79 C17.31292969 79.20496094 16.62585938 79.40992188 15.91796875 79.62109375 C15.01691406 79.89050781 14.11585938 80.15992188 13.1875 80.4375 C12.29417969 80.70433594 11.40085937 80.97117187 10.48046875 81.24609375 C8.64526945 81.80387873 6.81966274 82.39344575 5 83 C4.67 80.36 4.34 77.72 4 75 C6.64 75.33 9.28 75.66 12 76 C10.03177114 74.03177114 6.65191291 74.33751619 4 74 C4 59.66666667 4 45.33333333 4 31 C3.69595322 29.32774271 3.36871088 27.65919896 3 26 C1.02 26 -0.96 26 -3 26 C-3 25.34 -3 24.68 -3 24 C-3.99 24.66 -4.98 25.32 -6 26 C-6.99 26 -7.98 26 -9 26 C-9 24.68 -9 23.36 -9 22 C-9.99 22.33 -10.98 22.66 -12 23 C-12 24.32 -12 25.64 -12 27 C-13.98 27 -15.96 27 -18 27 C-18.33 26.01 -18.66 25.02 -19 24 C-18.01 22.515 -18.01 22.515 -17 21 C-16.34 21 -15.68 21 -15 21 C-14.855625 20.195625 -14.71125 19.39125 -14.5625 18.5625 C-14 16 -14 16 -13 15 C-12.95936168 13.33382885 -12.957279 11.66611905 -13 10 C-14.65 9.67 -16.3 9.34 -18 9 C-18 8.01 -18 7.02 -18 6 C-16.35 6 -14.7 6 -13 6 C-13 6.66 -13 7.32 -13 8 C-11.02 7.67 -9.04 7.34 -7 7 C-7.99 7.495 -7.99 7.495 -9 8 C-9 8.66 -9 9.32 -9 10 C-6.36 9.34 -3.72 8.68 -1 8 C-0.67 5.36 -0.34 2.72 0 0 Z " fill="#05AD74" transform="translate(653,375)"/>
<path d="M0 0 C10.01651133 6.93450784 21.4072225 16.37704992 26 28 C26.140625 30.78515625 26.140625 30.78515625 26 33 C25.34 33 24.68 33 24 33 C24 33.66 24 34.32 24 35 C25.2065625 35.185625 25.2065625 35.185625 26.4375 35.375 C27.283125 35.58125 28.12875 35.7875 29 36 C31.70825821 41.41651641 30.61205826 50.49722711 29.2109375 56.2265625 C28.25135174 58.8855673 27.18887158 61.43636056 26 64 C25.505 65.19625 25.01 66.3925 24.5 67.625 C23 70 23 70 20.9375 70.625 C19.9784375 70.810625 19.9784375 70.810625 19 71 C18.731875 71.598125 18.46375 72.19625 18.1875 72.8125 C16.36861229 76.16308263 13.40610661 77.57163271 10 79 C6.3125 79.6875 6.3125 79.6875 3 80 C1.9171875 80.309375 1.9171875 80.309375 0.8125 80.625 C-1.39750957 81.08224336 -2.87346879 80.68352789 -5 80 C-6.88389003 74.34832992 -8.28732425 68.71893672 -6.26171875 62.8671875 C-4.62318806 60.44236499 -3.34737698 60.10360627 -0.5625 59.3125 C0.61119141 58.96638672 0.61119141 58.96638672 1.80859375 58.61328125 C2.53175781 58.41089844 3.25492188 58.20851563 4 58 C5.485 57.505 5.485 57.505 7 57 C7.66 58.32 8.32 59.64 9 61 C8.505 59.515 8.505 59.515 8 58 C8.02266645 56.03214018 8.04987361 54.06404817 8.1159668 52.09716797 C8.34885026 44.65920413 8.21488102 39.33748298 4 33 C1.27290692 27.28496146 -0.13801523 22.59327928 -0.0625 16.25 C-0.05347656 15.26515625 -0.04445313 14.2803125 -0.03515625 13.265625 C-0.02355469 12.51796875 -0.01195312 11.7703125 0 11 C1.32 10.34 2.64 9.68 4 9 C3.42618522 5.67187429 2.40619252 4.30157545 0 2 C0 1.34 0 0.68 0 0 Z " fill="#03C382" transform="translate(568,438)"/>
<path d="M0 0 C2.28030908 2.28030908 1.232825 7.6282023 1.25 10.6875 C1.270625 11.58662109 1.29125 12.48574219 1.3125 13.41210938 C1.34422693 18.81758526 0.76231293 22.22483888 -2 27 C-3.32492177 33.51718278 -1.10894189 39.42256425 1.125 45.49609375 C2 48 2 48 2 50 C0.68 49.67 -0.64 49.34 -2 49 C-2 48.34 -2 47.68 -2 47 C-2.66 47 -3.32 47 -4 47 C-4.33 48.32 -4.66 49.64 -5 51 C-3.35 51 -1.7 51 0 51 C0.88826175 58.18808741 1.01202288 64.82242235 0 72 C-4.46939649 71.58099408 -7.02059008 68.47387936 -10 65.4375 C-10.5360083 64.89536865 -11.0720166 64.3532373 -11.62426758 63.79467773 C-16.66165402 58.55526746 -20.07165877 53.42672988 -21 46 C-21.66 46 -22.32 46 -23 46 C-24.26237731 43.47524538 -24.09856404 41.68799534 -24.0625 38.875 C-24.05347656 37.96492188 -24.04445313 37.05484375 -24.03515625 36.1171875 C-24.02355469 35.41851562 -24.01195312 34.71984375 -24 34 C-23.34 34 -22.68 34 -22 34 C-21.67 33.01 -21.34 32.02 -21 31 C-21.99 31.33 -22.98 31.66 -24 32 C-24.95024979 28.30458414 -24.95024979 25.69541586 -24 22 C-23.34 23.32 -22.68 24.64 -22 26 C-22.02320313 25.38511719 -22.04640625 24.77023437 -22.0703125 24.13671875 C-22.08835937 23.32847656 -22.10640625 22.52023437 -22.125 21.6875 C-22.14820313 20.88699219 -22.17140625 20.08648437 -22.1953125 19.26171875 C-22 17 -22 17 -20 14 C-19.34 14 -18.68 14 -18 14 C-17.91363281 13.25105469 -17.82726562 12.50210937 -17.73828125 11.73046875 C-16.85426591 8.4610152 -15.77126994 7.44566813 -13.1875 5.3125 C-12.50042969 4.73113281 -11.81335938 4.14976562 -11.10546875 3.55078125 C-7.34432538 0.78051424 -4.72145657 -0.3828208 0 0 Z " fill="#03C381" transform="translate(555,379)"/>
<path d="M0 0 C-0.33 0.66 -0.66 1.32 -1 2 C-0.01 1.67 0.98 1.34 2 1 C2 3.31 2 5.62 2 8 C-1.63 8 -5.26 8 -9 8 C-9 8.66 -9 9.32 -9 10 C-9.99 10.33 -10.98 10.66 -12 11 C-8.09365206 11.22321988 -5.58544966 10.4709537 -2 9 C-0.68 9 0.64 9 2 9 C2.76776074 12.40931683 3.12615022 15.55769623 3.12939453 19.04980469 C3.13254669 20.02721619 3.13569885 21.00462769 3.13894653 22.01165771 C3.1369223 23.05452942 3.13489807 24.09740112 3.1328125 25.171875 C3.13424759 26.78911469 3.13424759 26.78911469 3.13571167 28.43902588 C3.13639094 30.71179259 3.13455429 32.98456126 3.13037109 35.25732422 C3.12499843 38.75102031 3.13033533 42.24458905 3.13671875 45.73828125 C3.13605833 47.94531279 3.13477793 50.15234424 3.1328125 52.359375 C3.13483673 53.41034363 3.13686096 54.46131226 3.13894653 55.54412842 C3.13579437 56.50893127 3.13264221 57.47373413 3.12939453 58.46777344 C3.12859894 59.32095154 3.12780334 60.17412964 3.12698364 61.05316162 C3 63 3 63 2 64 C0.5112814 64.08669432 -0.981445 64.10703494 -2.47265625 64.09765625 C-3.37177734 64.09443359 -4.27089844 64.09121094 -5.19726562 64.08789062 C-6.61555664 64.07532227 -6.61555664 64.07532227 -8.0625 64.0625 C-9.01189453 64.05798828 -9.96128906 64.05347656 -10.93945312 64.04882812 C-13.29303065 64.0370011 -15.64648477 64.02052025 -18 64 C-18 44.66666667 -18 25.33333333 -18 6 C-17.01 6.33 -16.02 6.66 -15 7 C-15.33 7.33 -15.66 7.66 -16 8 C-15.01 8.33 -14.02 8.66 -13 9 C-13 8.01 -13 7.02 -13 6 C-12.01 6 -11.02 6 -10 6 C-10 5.34 -10 4.68 -10 4 C-10.66 3.67 -11.32 3.34 -12 3 C-10.3789897 2.30314502 -8.75303934 1.61777139 -7.125 0.9375 C-6.22007812 0.55464844 -5.31515625 0.17179687 -4.3828125 -0.22265625 C-2 -1 -2 -1 0 0 Z " fill="#0B6849" transform="translate(977,455)"/>
<path d="M0 0 C0.66 0.33 1.32 0.66 2 1 C1.01 2.32 0.02 3.64 -1 5 C-0.34 5 0.32 5 1 5 C1.33 4.01 1.66 3.02 2 2 C2.99 2 3.98 2 5 2 C5 22.46 5 42.92 5 64 C1.11436275 65.29521242 -2.57800269 65.14503464 -6.625 65.125 C-7.41390625 65.12886719 -8.2028125 65.13273438 -9.015625 65.13671875 C-14.87334606 65.12665394 -14.87334606 65.12665394 -16 64 C-16.07346251 61.51109015 -16.0923641 59.05040928 -16.0625 56.5625 C-16.05798828 55.86833984 -16.05347656 55.17417969 -16.04882812 54.45898438 C-16.0364972 52.63929191 -16.01858882 50.8196393 -16 49 C-16 48.34 -16 47.68 -16 47 C-16 33.66666667 -16 20.33333333 -16 7 C-15.01 7 -14.02 7 -13 7 C-13 7.66 -13 8.32 -13 9 C-12.01 9.33 -11.02 9.66 -10 10 C-10 9.01 -10 8.02 -10 7 C-8.68 7.33 -7.36 7.66 -6 8 C-6.33 8.99 -6.66 9.98 -7 11 C-9.0625 11.6875 -9.0625 11.6875 -11 12 C-8.69 12 -6.38 12 -4 12 C-3.67 11.34 -3.34 10.68 -3 10 C-3.66 9.67 -4.32 9.34 -5 9 C-5 8.34 -5 7.68 -5 7 C-5.66 6.67 -6.32 6.34 -7 6 C-6 3 -6 3 -3.0625 1.25 C-2.051875 0.8375 -1.04125 0.425 0 0 Z " fill="#05AC74" transform="translate(673,454)"/>
<path d="M0 0 C7.09870337 -0.68697129 12.6993975 0.57835364 19.375 2.8125 C20.15987793 3.07305176 20.94475586 3.33360352 21.75341797 3.60205078 C29.28081371 6.22991985 29.28081371 6.22991985 32 9 C32 9.99 32 10.98 32 12 C33.31337396 13.0260734 34.64664105 14.02727325 36 15 C36 15.66 36 16.32 36 17 C37.32 17 38.64 17 40 17 C40 17.66 40 18.32 40 19 C41.32 19 42.64 19 44 19 C44 19.66 44 20.32 44 21 C44.99 21.33 45.98 21.66 47 22 C46.0409375 22.4640625 46.0409375 22.4640625 45.0625 22.9375 C43.06389179 23.8345163 43.06389179 23.8345163 42 25 C40.33382885 25.04063832 38.66611905 25.042721 37 25 C37.495 27.97 37.495 27.97 38 31 C36.35 31.33 34.7 31.66 33 32 C33 32.66 33 33.32 33 34 C28.05 34.33 23.1 34.66 18 35 C16.9790625 32.15375 16.9790625 32.15375 15.9375 29.25 C13.78273729 23.92419513 13.78273729 23.92419513 9.5 20.375 C8.345 19.92125 7.19 19.4675 6 19 C3.525 18.01 3.525 18.01 1 17 C0.67 11.39 0.34 5.78 0 0 Z " fill="#03C381" transform="translate(559,377)"/>
<path d="M0 0 C0.83254807 -0.0033284 1.66509613 -0.0066568 2.52287292 -0.01008606 C4.28908738 -0.01515993 6.05531147 -0.01749424 7.8215332 -0.01733398 C10.52115801 -0.01951364 13.22036983 -0.03764533 15.91992188 -0.05664062 C17.63411318 -0.05957583 19.34830644 -0.06155978 21.0625 -0.0625 C21.86992142 -0.06968552 22.67734283 -0.07687103 23.50923157 -0.08427429 C27.3823443 -0.06853841 30.45361537 -0.04677378 33.73046875 2.16796875 C33.73046875 2.82796875 33.73046875 3.48796875 33.73046875 4.16796875 C32.74046875 4.49796875 31.75046875 4.82796875 30.73046875 5.16796875 C30.40046875 5.82796875 30.07046875 6.48796875 29.73046875 7.16796875 C31.71046875 7.16796875 33.69046875 7.16796875 35.73046875 7.16796875 C35.73046875 8.15796875 35.73046875 9.14796875 35.73046875 10.16796875 C34.74046875 10.16796875 33.75046875 10.16796875 32.73046875 10.16796875 C32.73046875 10.82796875 32.73046875 11.48796875 32.73046875 12.16796875 C32.07046875 12.16796875 31.41046875 12.16796875 30.73046875 12.16796875 C30.40046875 13.81796875 30.07046875 15.46796875 29.73046875 17.16796875 C30.39046875 17.49796875 31.05046875 17.82796875 31.73046875 18.16796875 C29.50994598 20.8799933 28.32058148 22.06060809 24.81713867 22.69799805 C23.70959229 22.71258057 22.6020459 22.72716309 21.4609375 22.7421875 C20.24212891 22.76990234 19.02332031 22.79761719 17.76757812 22.82617188 C16.49720703 22.83583984 15.22683594 22.84550781 13.91796875 22.85546875 C11.41140187 22.89782241 8.90488547 22.94330053 6.3984375 22.9921875 C5.28750732 23.00338623 4.17657715 23.01458496 3.03198242 23.02612305 C-0.4555705 23.17596171 -3.82371832 23.62145174 -7.26953125 24.16796875 C-7.60628404 21.27249611 -7.93904859 18.37665803 -8.26953125 15.48046875 C-8.36492188 14.66384766 -8.4603125 13.84722656 -8.55859375 13.00585938 C-9.49520998 4.74356618 -9.49520998 4.74356618 -9.26953125 1.16796875 C-7.20762565 -0.89393685 -2.83900003 0.00388362 0 0 Z " fill="#098057" transform="translate(876.26953125,378.83203125)"/>
<path d="M0 0 C0.02578125 0.556875 0.0515625 1.11375 0.078125 1.6875 C0.38955962 5.87771126 0.79688933 8.98395594 3.0625 12.5625 C5.33899216 16.64362957 5.37858321 20.6793597 5.375 25.25 C5.37636963 25.94810791 5.37773926 26.64621582 5.37915039 27.36547852 C5.30056629 31.04827597 5.01655333 33.87030924 3 37 C-3.10405445 36.63375673 -5.9625112 35.43139015 -10 31 C-10.375 27.6875 -10.375 27.6875 -10 25 C-10.99 25 -11.98 25 -13 25 C-16.57403928 22.15577409 -17.88334759 19.36311652 -19.25 15.0625 C-19.58515625 14.04285156 -19.9203125 13.02320313 -20.265625 11.97265625 C-20.96620924 9.13678069 -21.30478273 6.90051563 -21 4 C-15.37562038 -0.92133217 -7.0491806 -0.12587822 0 0 Z " fill="#03C482" transform="translate(550,478)"/>
<path d="M0 0 C10.56 0 21.12 0 32 0 C32 3.63 32 7.26 32 11 C29.68880208 10.73958333 27.37760417 10.47916667 25.06640625 10.21875 C23.5360501 10.05543721 23.5360501 10.05543721 22 10 C22 12.88435938 22.12290556 15.42179168 22.5 18.25 C22.7475 20.10625 22.7475 20.10625 23 22 C15.33333333 22 7.66666667 22 0 22 C0 14.74 0 7.48 0 0 Z " fill="#097C54" transform="translate(869,496)"/>
<path d="M0 0 C0.66 0 1.32 0 2 0 C2.13277344 0.78246094 2.26554687 1.56492187 2.40234375 2.37109375 C2.57894531 3.38300781 2.75554687 4.39492188 2.9375 5.4375 C3.11152344 6.44683594 3.28554688 7.45617187 3.46484375 8.49609375 C3.74751097 10.9287438 3.74751097 10.9287438 5 12 C5.23527773 14.34987262 5.41386417 16.70556039 5.5625 19.0625 C5.64628906 20.35285156 5.73007812 21.64320313 5.81640625 22.97265625 C5.87699219 23.97167969 5.93757813 24.97070312 6 26 C7.32 26.33 8.64 26.66 10 27 C9.01 27.33 8.02 27.66 7 28 C7.34227572 30.97065509 7.34227572 30.97065509 8 34 C8.66 34.33 9.32 34.66 10 35 C10.26718853 36.90371826 10.52458761 38.80971728 10.71484375 40.72265625 C11.15548915 44.24178319 12.08308393 47.57684669 13 51 C12.01 51 11.02 51 10 51 C9.67 49.68 9.34 48.36 9 47 C8.01 47.99 7.02 48.98 6 50 C6.99 50 7.98 50 9 50 C9 50.99 9 51.98 9 53 C8.34 53 7.68 53 7 53 C7 53.66 7 54.32 7 55 C6.34 55 5.68 55 5 55 C4.67 55.66 4.34 56.32 4 57 C3.34 55.35 2.68 53.7 2 52 C2.99 51.505 2.99 51.505 4 51 C4.33 50.01 4.66 49.02 5 48 C4.28972656 48.01160156 3.57945312 48.02320313 2.84765625 48.03515625 C1.92855469 48.04417969 1.00945312 48.05320312 0.0625 48.0625 C-0.85402344 48.07410156 -1.77054687 48.08570313 -2.71484375 48.09765625 C-5 48 -5 48 -6 47 C-5.9140625 45.07421875 -5.9140625 45.07421875 -5.625 42.6875 C-5.48964844 41.51767578 -5.48964844 41.51767578 -5.3515625 40.32421875 C-5 38 -5 38 -4.4934082 36.10058594 C-3.51672501 31.94255418 -3.63239702 27.54859835 -3.48242188 23.28710938 C-3.28817018 19.11986073 -2.8730762 15.81440213 -1 12 C-2.65 12 -4.3 12 -6 12 C-6 11.01 -6 10.02 -6 9 C-4.68 9 -3.36 9 -2 9 C-1.34 6.03 -0.68 3.06 0 0 Z " fill="#000B07" transform="translate(467,419)"/>
<path d="M0 0 C1.24523437 0.05607422 1.24523437 0.05607422 2.515625 0.11328125 C3.39476562 0.14808594 4.27390625 0.18289063 5.1796875 0.21875 C8.41523852 0.47778958 11.56764964 0.86961162 14.765625 1.42578125 C14.58 2.39515625 14.394375 3.36453125 14.203125 4.36328125 C14.05875 5.37390625 13.914375 6.38453125 13.765625 7.42578125 C14.095625 7.75578125 14.425625 8.08578125 14.765625 8.42578125 C14.99755365 9.94047573 15.17777738 11.46332687 15.328125 12.98828125 C15.45380859 14.22771484 15.45380859 14.22771484 15.58203125 15.4921875 C15.64261719 16.13027344 15.70320312 16.76835937 15.765625 17.42578125 C14.445625 17.09578125 13.125625 16.76578125 11.765625 16.42578125 C11.765625 15.43578125 11.765625 14.44578125 11.765625 13.42578125 C9.785625 14.08578125 7.805625 14.74578125 5.765625 15.42578125 C5.683125 16.20953125 5.600625 16.99328125 5.515625 17.80078125 C4.765625 20.42578125 4.765625 20.42578125 3.078125 21.86328125 C-0.15669433 22.6501292 -2.21213983 21.66215018 -5.234375 20.42578125 C-5.564375 17.45578125 -5.894375 14.48578125 -6.234375 11.42578125 C-7.884375 11.75578125 -9.534375 12.08578125 -11.234375 12.42578125 C-10.904375 11.43578125 -10.574375 10.44578125 -10.234375 9.42578125 C-9.244375 9.42578125 -8.254375 9.42578125 -7.234375 9.42578125 C-6.8321875 8.31203125 -6.8321875 8.31203125 -6.421875 7.17578125 C-3.62122178 0.690058 -3.62122178 0.690058 0 0 Z " fill="#097F57" transform="translate(881.234375,436.57421875)"/>
<path d="M0 0 C0.680625 0.7115625 0.680625 0.7115625 1.375 1.4375 C3.46366683 3.44583349 5.1783448 3.61869524 8 4 C8 3.34 8 2.68 8 2 C9.65 2 11.3 2 13 2 C11.75 3.5 11.75 3.5 10 5 C8.68 5 7.36 5 6 5 C6 5.66 6 6.32 6 7 C6.99 7.66 7.98 8.32 9 9 C1.17287306 14.21808463 -11.80776338 12.10380192 -21 12 C-21 12.66 -21 13.32 -21 14 C-21.8971875 14.3403125 -21.8971875 14.3403125 -22.8125 14.6875 C-25.21911415 15.89660151 -25.21911415 15.89660151 -26.5625 18.625 C-27.036875 19.40875 -27.51125 20.1925 -28 21 C-28.99 21 -29.98 21 -31 21 C-30.67 19.68 -30.34 18.36 -30 17 C-29.34 17 -28.68 17 -28 17 C-27.979375 15.741875 -27.95875 14.48375 -27.9375 13.1875 C-27.68359375 10.96875 -27.68359375 10.96875 -27 9 C-23.5 7.1875 -23.5 7.1875 -20 6 C-19.67 5.01 -19.34 4.02 -19 3 C-17.68 3 -16.36 3 -15 3 C-15 3.99 -15 4.98 -15 6 C-12.03 5.34 -9.06 4.68 -6 4 C-6 3.01 -6 2.02 -6 1 C-3 0 -3 0 0 0 Z " fill="#002217" transform="translate(627,427)"/>
<path d="M0 0 C1.65 0 3.3 0 5 0 C5 0.66 5 1.32 5 2 C6.98 1.67 8.96 1.34 11 1 C10.01 1.495 10.01 1.495 9 2 C9.99 3.98 10.98 5.96 12 8 C12.78375 7.34 13.5675 6.68 14.375 6 C17 4 17 4 19 4 C19.33 5.65 19.66 7.3 20 9 C19.34 9 18.68 9 18 9 C18 9.99 18 10.98 18 12 C17.34 12 16.68 12 16 12 C16 13.65 16 15.3 16 17 C14.68 17 13.36 17 12 17 C12.33 15.02 12.66 13.04 13 11 C12.01 11.66 11.02 12.32 10 13 C9.01 13 8.02 13 7 13 C6.17361624 15.89234315 6 17.88742431 6 21 C4.02 21 2.04 21 0 21 C-0.33 20.01 -0.66 19.02 -1 18 C-0.01 16.515 -0.01 16.515 1 15 C1.66 15 2.32 15 3 15 C3.144375 14.195625 3.28875 13.39125 3.4375 12.5625 C4 10 4 10 5 9 C5.04063832 7.33382885 5.042721 5.66611905 5 4 C3.35 3.67 1.7 3.34 0 3 C0 2.01 0 1.02 0 0 Z " fill="#048C5E" transform="translate(635,381)"/>
<path d="M0 0 C1.65 0 3.3 0 5 0 C5 0.66 5 1.32 5 2 C8.465 1.505 8.465 1.505 12 1 C11.01 1.495 11.01 1.495 10 2 C9.59270772 4.32156597 9.25561323 6.6568787 9 9 C12.59391114 7.66511872 15.75490696 6.03977277 19 4 C19 4.66 19 5.32 19 6 C19.66 6.33 20.32 6.66 21 7 C20.67 7.66 20.34 8.32 20 9 C19.34 9 18.68 9 18 9 C17.67 11.64 17.34 14.28 17 17 C15.68 17.33 14.36 17.66 13 18 C13 18.66 13 19.32 13 20 C11.125 19.875 11.125 19.875 9 19 C7.75 15.9375 7.75 15.9375 7 13 C6.01 13.33 5.02 13.66 4 14 C4.20625 13.21625 4.4125 12.4325 4.625 11.625 C4.810625 10.325625 4.810625 10.325625 5 9 C4.34 8.34 3.68 7.68 3 7 C3.99 7 4.98 7 6 7 C6 6.01 6 5.02 6 4 C4.35 3.67 2.7 3.34 1 3 C0.67 2.01 0.34 1.02 0 0 Z " fill="#0A6043" transform="translate(936,381)"/>
<path d="M0 0 C1.65 0 3.3 0 5 0 C5.125 2.875 5.125 2.875 5 6 C4.34 6.66 3.68 7.32 3 8 C3.66 9.98 4.32 11.96 5 14 C3.7625 14.144375 2.525 14.28875 1.25 14.4375 C-1.00211962 14.71108495 -3.06129157 15.01702544 -5.25 15.625 C-7.42801487 16.09171747 -8.9026694 15.67414198 -11 15 C-10.67 13.68 -10.34 12.36 -10 11 C-10.66 11 -11.32 11 -12 11 C-11.67 10.01 -11.34 9.02 -11 8 C-9.35 8.33 -7.7 8.66 -6 9 C-5.67 8.34 -5.34 7.68 -5 7 C-4.01 7 -3.02 7 -2 7 C-2.33 5.02 -2.66 3.04 -3 1 C-2.34 1 -1.68 1 -1 1 C-1 2.32 -1 3.64 -1 5 C-0.01 4.34 0.98 3.68 2 3 C1.34 2.67 0.68 2.34 0 2 C0 1.34 0 0.68 0 0 Z " fill="#002418" transform="translate(454,438)"/>
<path d="M0 0 C1.32 0 2.64 0 4 0 C3.67 2.31 3.34 4.62 3 7 C3.66 6.67 4.32 6.34 5 6 C6.99960012 5.960008 9.00047242 5.95653201 11 6 C11 6.66 11 7.32 11 8 C4.565 8.495 4.565 8.495 -2 9 C-2 9.66 -2 10.32 -2 11 C-2.8971875 11.3403125 -2.8971875 11.3403125 -3.8125 11.6875 C-6.21911415 12.89660151 -6.21911415 12.89660151 -7.5625 15.625 C-8.036875 16.40875 -8.51125 17.1925 -9 18 C-9.99 18 -10.98 18 -12 18 C-11.67 16.68 -11.34 15.36 -11 14 C-10.34 14 -9.68 14 -9 14 C-8.979375 12.741875 -8.95875 11.48375 -8.9375 10.1875 C-8.68359375 7.96875 -8.68359375 7.96875 -8 6 C-4.5 4.1875 -4.5 4.1875 -1 3 C-0.67 2.01 -0.34 1.02 0 0 Z " fill="#03C382" transform="translate(608,430)"/>
<path d="M0 0 C0.45375 0.474375 0.9075 0.94875 1.375 1.4375 C3.46366683 3.44583349 5.1783448 3.61869524 8 4 C8 3.34 8 2.68 8 2 C9.65 2 11.3 2 13 2 C10.73528815 4.63761262 9.17966237 5.44854712 5.76171875 5.984375 C4.94123047 6.11457031 4.12074219 6.24476563 3.27539062 6.37890625 C2.42138672 6.50136719 1.56738281 6.62382812 0.6875 6.75 C-0.15490234 6.88792969 -0.99730469 7.02585937 -1.86523438 7.16796875 C-6.50516028 7.87175735 -10.36807125 8.11831232 -15 7 C-15 6.67 -15 6.34 -15 6 C-12.03 5.34 -9.06 4.68 -6 4 C-6 3.01 -6 2.02 -6 1 C-3 0 -3 0 0 0 Z " fill="#03B075" transform="translate(627,427)"/>
<path d="M0 0 C-0.33 0.66 -0.66 1.32 -1 2 C-0.01 1.67 0.98 1.34 2 1 C2 3.31 2 5.62 2 8 C-1.63 8 -5.26 8 -9 8 C-9.33 6.68 -9.66 5.36 -10 4 C-10.66 3.67 -11.32 3.34 -12 3 C-10.3789897 2.30314502 -8.75303934 1.61777139 -7.125 0.9375 C-6.22007812 0.55464844 -5.31515625 0.17179687 -4.3828125 -0.22265625 C-2 -1 -2 -1 0 0 Z " fill="#095C40" transform="translate(977,455)"/>
<path d="M0 0 C0.66 0.33 1.32 0.66 2 1 C1.01 2.32 0.02 3.64 -1 5 C-0.34 5 0.32 5 1 5 C1.33 4.01 1.66 3.02 2 2 C2.99 2 3.98 2 5 2 C5.125 7.75 5.125 7.75 4 10 C1.07286212 10.94934202 -0.42831368 11.23176473 -3.3125 10.0625 C-3.869375 9.711875 -4.42625 9.36125 -5 9 C-5 8.34 -5 7.68 -5 7 C-5.66 6.67 -6.32 6.34 -7 6 C-6 3 -6 3 -3.0625 1.25 C-2.051875 0.8375 -1.04125 0.425 0 0 Z " fill="#049967" transform="translate(673,454)"/>
<path d="M0 0 C2.64 0.33 5.28 0.66 8 1 C7.814375 1.969375 7.62875 2.93875 7.4375 3.9375 C7.293125 4.948125 7.14875 5.95875 7 7 C7.33 7.33 7.66 7.66 8 8 C8.23192865 9.51469448 8.41215238 11.03754562 8.5625 12.5625 C8.64628906 13.38878906 8.73007812 14.21507812 8.81640625 15.06640625 C8.87699219 15.70449219 8.93757812 16.34257812 9 17 C7.68 16.67 6.36 16.34 5 16 C5 15.01 5 14.02 5 13 C4.34 12.67 3.68 12.34 3 12 C3 9.36 3 6.72 3 4 C2.01 4 1.02 4 0 4 C0 2.68 0 1.36 0 0 Z M1 12 C1.66 12.33 2.32 12.66 3 13 C2.01 13.66 1.02 14.32 0 15 C0.33 14.01 0.66 13.02 1 12 Z " fill="#000A07" transform="translate(888,437)"/>
<path d="M0 0 C0.66 0 1.32 0 2 0 C2.33 1.65 2.66 3.3 3 5 C4.32 5.33 5.64 5.66 7 6 C6.78515625 7.890625 6.78515625 7.890625 6 10 C3.93359375 11.046875 3.93359375 11.046875 1.4375 11.75 C0.19806641 12.11351562 0.19806641 12.11351562 -1.06640625 12.484375 C-2.02353516 12.73960937 -2.02353516 12.73960937 -3 13 C-3.66 12.34 -4.32 11.68 -5 11 C-4.625 8.875 -4.625 8.875 -4 7 C-2.68 6.67 -1.36 6.34 0 6 C-0.185625 5.38125 -0.37125 4.7625 -0.5625 4.125 C-1 2 -1 2 0 0 Z " fill="#001A11" transform="translate(372,385)"/>
<path d="M0 0 C0.66 0 1.32 0 2 0 C2.33 1.65 2.66 3.3 3 5 C2.34 5 1.68 5 1 5 C1 5.99 1 6.98 1 8 C0.34 8 -0.32 8 -1 8 C-1 9.65 -1 11.3 -1 13 C-2.32 13 -3.64 13 -5 13 C-4.67 11.02 -4.34 9.04 -4 7 C-5.98 7.33 -7.96 7.66 -10 8 C-9.67 7.01 -9.34 6.02 -9 5 C-6.68895182 3.94952356 -4.35416349 2.94992562 -2 2 C-1.34 1.34 -0.68 0.68 0 0 Z " fill="#000F0A" transform="translate(652,385)"/>
<path d="M0 0 C0.33 0.66 0.66 1.32 1 2 C1.66 2.33 2.32 2.66 3 3 C2.67 3.66 2.34 4.32 2 5 C1.34 5 0.68 5 0 5 C-0.12375 6.299375 -0.2475 7.59875 -0.375 8.9375 C-0.5859375 11.15234375 -0.5859375 11.15234375 -1 13 C-1.99 13.495 -1.99 13.495 -3 14 C-3 13.34 -3 12.68 -3 12 C-3.99 12 -4.98 12 -6 12 C-5.34 10.35 -4.68 8.7 -4 7 C-4.99 7 -5.98 7 -7 7 C-7 7.66 -7 8.32 -7 9 C-7.99 8.67 -8.98 8.34 -10 8 C-9.67 7.01 -9.34 6.02 -9 5 C-7.3523962 4.28752268 -5.68236471 3.62599617 -4 3 C-2.63634717 2.04175747 -1.29205831 1.05278825 0 0 Z " fill="#000806" transform="translate(954,385)"/>
<path d="M0 0 C1.52831872 2.41313483 1.41482116 4.07137237 1.1875 6.875 C-0.1325 6.875 -1.4525 6.875 -2.8125 6.875 C-3.1425 7.865 -3.4725 8.855 -3.8125 9.875 C-4.8025 9.545 -5.7925 9.215 -6.8125 8.875 C-7.9375 3.25 -7.9375 3.25 -6.8125 -0.125 C-2.34244924 -1.45393401 -2.34244924 -1.45393401 0 0 Z " fill="#019C67" transform="translate(448.8125,454.125)"/>
<path d="M0 0 C-0.3125 1.9375 -0.3125 1.9375 -1 4 C-1.99 4.33 -2.98 4.66 -4 5 C-4 3.68 -4 2.36 -4 1 C-4.99 1 -5.98 1 -7 1 C-7 2.98 -7 4.96 -7 7 C-7.99 6.67 -8.98 6.34 -10 6 C-9.67 4.68 -9.34 3.36 -9 2 C-10.65 2 -12.3 2 -14 2 C-14.33 1.01 -14.66 0.02 -15 -1 C-13.25181409 -1.22304441 -11.50129677 -1.4278645 -9.75 -1.625 C-8.77546875 -1.74101562 -7.8009375 -1.85703125 -6.796875 -1.9765625 C-3.86570607 -2.00112537 -2.45471036 -1.5312717 0 0 Z " fill="#000D08" transform="translate(727,401)"/>
<path d="M0 0 C0.66 0 1.32 0 2 0 C2 0.99 2 1.98 2 3 C1.030625 3.45375 0.06125 3.9075 -0.9375 4.375 C-4.07079582 5.65786221 -4.07079582 5.65786221 -5 8 C-4.01 8.33 -3.02 8.66 -2 9 C-2.33 9.66 -2.66 10.32 -3 11 C-1.68 11.66 -0.36 12.32 1 13 C-2.6441774 15.4294516 -4.71241272 15.16179575 -9 15 C-9.33 14.34 -9.66 13.68 -10 13 C-8.35 13 -6.7 13 -5 13 C-5.57584432 10.61435923 -6.22227595 8.33317216 -7 6 C-6.67 5.01 -6.34 4.02 -6 3 C-4.02 2.67 -2.04 2.34 0 2 C0 1.34 0 0.68 0 0 Z " fill="#013524" transform="translate(671,452)"/>
<path d="M0 0 C1.32 0 2.64 0 4 0 C3.67 2.31 3.34 4.62 3 7 C3.66 6.67 4.32 6.34 5 6 C6.99960012 5.960008 9.00047242 5.95653201 11 6 C11 6.66 11 7.32 11 8 C9.39679026 8.19551338 7.79237014 8.38111983 6.1875 8.5625 C5.29417969 8.66691406 4.40085937 8.77132813 3.48046875 8.87890625 C1 9 1 9 -2 8 C-2 7.34 -2 6.68 -2 6 C-2.99 5.67 -3.98 5.34 -5 5 C-4.360625 4.731875 -3.72125 4.46375 -3.0625 4.1875 C-0.66868314 3.11332248 -0.66868314 3.11332248 0 0 Z " fill="#029A66" transform="translate(608,430)"/>
<path d="M0 0 C1.5 1.375 1.5 1.375 3 3 C3 3.66 3 4.32 3 5 C0.60385874 5.05425226 -1.79103853 5.09379027 -4.1875 5.125 C-5.19780273 5.15013672 -5.19780273 5.15013672 -6.22851562 5.17578125 C-10.28807807 5.21538674 -13.34998815 4.80020002 -17 3 C-17 2.67 -17 2.34 -17 2 C-11.39 2 -5.78 2 0 2 C0 1.34 0 0.68 0 0 Z " fill="#00DE92" transform="translate(415,394)"/>
<path d="M0 0 C3.48640807 1.08198871 4.07292355 2.13369318 5.875 5.4375 C6.24625 6.613125 6.6175 7.78875 7 9 C6.01 10.485 6.01 10.485 5 12 C2.37812506 10.95125002 1.20628639 10.35068687 -0.25 7.875 C-0.4975 7.25625 -0.745 6.6375 -1 6 C-0.34 6 0.32 6 1 6 C0.67 4.02 0.34 2.04 0 0 Z " fill="#03B679" transform="translate(557,447)"/>
<path d="M0 0 C1.65 0 3.3 0 5 0 C7 2 7 2 7.125 5.625 C7.08375 6.73875 7.0425 7.8525 7 9 C5.35 9.33 3.7 9.66 2 10 C1.34 6.7 0.68 3.4 0 0 Z " fill="#087852" transform="translate(894,508)"/>
<path d="M0 0 C1.258125 -0.04125 2.51625 -0.0825 3.8125 -0.125 C4.52019531 -0.14820313 5.22789062 -0.17140625 5.95703125 -0.1953125 C8 0 8 0 11 2 C7.51279384 6.3590077 4.27239085 6.94552183 -1 8 C-1 6.68 -1 5.36 -1 4 C1.64 4 4.28 4 7 4 C7 3.34 7 2.68 7 2 C4.36 2.33 1.72 2.66 -1 3 C-0.67 2.01 -0.34 1.02 0 0 Z " fill="#00BA7A" transform="translate(419,519)"/>
<path d="M0 0 C2.64 0 5.28 0 8 0 C8.33 1.65 8.66 3.3 9 5 C5.37 5 1.74 5 -2 5 C-1.34 3.35 -0.68 1.7 0 0 Z " fill="#00D78D" transform="translate(405,387)"/>
<path d="M0 0 C2.475 0.99 2.475 0.99 5 2 C5 2.66 5 3.32 5 4 C5.66 4 6.32 4 7 4 C7 5.98 7 7.96 7 10 C5.35 10 3.7 10 2 10 C0 3.375 0 3.375 0 0 Z " fill="#000F0A" transform="translate(847,438)"/>
<path d="M0 0 C4.62 0 9.24 0 14 0 C10.6133629 3.3866371 9.8662468 3.41963254 5.3125 3.6875 C4.31863281 3.75324219 3.32476563 3.81898438 2.30078125 3.88671875 C1.54152344 3.92410156 0.78226563 3.96148437 0 4 C0 2.68 0 1.36 0 0 Z " fill="#03C07F" transform="translate(622,435)"/>
<path d="M0 0 C1.98567708 0.5859375 3.97135417 1.171875 5.95703125 1.7578125 C4.96703125 2.0878125 3.97703125 2.4178125 2.95703125 2.7578125 C1.74821029 4.75797716 1.74821029 4.75797716 0.95703125 6.7578125 C-0.36296875 6.7578125 -1.68296875 6.7578125 -3.04296875 6.7578125 C-3.70296875 5.1078125 -4.36296875 3.4578125 -5.04296875 1.7578125 C-2.04296875 -0.2421875 -2.04296875 -0.2421875 0 0 Z " fill="#002015" transform="translate(715.04296875,413.2421875)"/>
<path d="M0 0 C0.33 0.66 0.66 1.32 1 2 C1.66 2 2.32 2 3 2 C3.38218767 3.65614657 3.71395102 5.32457024 4 7 C3 8 3 8 -0.0625 8.0625 C-1.031875 8.041875 -2.00125 8.02125 -3 8 C-3.33 7.01 -3.66 6.02 -4 5 C-3.34 4.01 -2.68 3.02 -2 2 C-1.34 2 -0.68 2 0 2 C0 1.34 0 0.68 0 0 Z " fill="#05A66F" transform="translate(638,394)"/>
<path d="M0 0 C0.12375 0.969375 0.2475 1.93875 0.375 2.9375 C0.58125 3.948125 0.7875 4.95875 1 6 C1.66 6.33 2.32 6.66 3 7 C0.35261084 8.4606285 -0.89448334 9 -4 9 C-4 7.68 -4 6.36 -4 5 C-4.66 5 -5.32 5 -6 5 C-6 4.01 -6 3.02 -6 2 C-2.25 0 -2.25 0 0 0 Z " fill="#05A16C" transform="translate(648,392)"/>
<path d="M0 0 C1.2065625 0.0309375 1.2065625 0.0309375 2.4375 0.0625 C3.4375 3.0625 3.4375 3.0625 3.4375 6.0625 C1.1275 6.0625 -1.1825 6.0625 -3.5625 6.0625 C-3.605221 4.39638095 -3.60313832 2.72867115 -3.5625 1.0625 C-2.5625 0.0625 -2.5625 0.0625 0 0 Z " fill="#0A6446" transform="translate(939.5625,395.9375)"/>
<path d="M0 0 C5.42857143 -0.36190476 5.42857143 -0.36190476 7.875 1.1875 C9.34781139 3.56036279 9.22223194 5.25913944 9 8 C5.63856582 6.87952194 4.42471166 5.50292817 2 3 C1.34 2.67 0.68 2.34 0 2 C0 1.34 0 0.68 0 0 Z " fill="#078A5E" transform="translate(750,343)"/>
<path d="M0 0 C4.95 0 9.9 0 15 0 C14.34 1.32 13.68 2.64 13 4 C11.39431334 3.71682074 9.79047953 3.42312209 8.1875 3.125 C7.29417969 2.96257812 6.40085937 2.80015625 5.48046875 2.6328125 C3 2 3 2 0 0 Z " fill="#0A6144" transform="translate(1038,416)"/>
<path d="M0 0 C6.75 0.875 6.75 0.875 9 2 C8.67 3.65 8.34 5.3 8 7 C7.01 6.34 6.02 5.68 5 5 C3.34450469 4.61500109 1.6777567 4.27206865 0 4 C0 2.68 0 1.36 0 0 Z " fill="#00140D" transform="translate(335,488)"/>
<path d="M0 0 C0.66 0 1.32 0 2 0 C2 2.31 2 4.62 2 7 C-0.64 7 -3.28 7 -6 7 C-6 6.34 -6 5.68 -6 5 C-5.01 4.67 -4.02 4.34 -3 4 C-1.99357052 2.67151309 -0.99307821 1.33849671 0 0 Z " fill="#0B6B4B" transform="translate(977,456)"/>
<path d="M0 0 C1.32 0 2.64 0 4 0 C4 0.99 4 1.98 4 3 C4.66 3.33 5.32 3.66 6 4 C6 5.32 6 6.64 6 8 C3.13275314 7.42655063 2.1385485 7.1385485 0 5 C-0.125 2.375 -0.125 2.375 0 0 Z " fill="#001D13" transform="translate(338,409)"/>
<path d="M0 0 C1.9375 0.375 1.9375 0.375 4 1 C5.20272819 3.40545638 5.10071472 4.94996953 5.0625 7.625 C5.05347656 8.44226563 5.04445313 9.25953125 5.03515625 10.1015625 C5.02355469 10.72804688 5.01195312 11.35453125 5 12 C1.34809426 9.56539617 1.08025283 8.15481857 0 4 C0 2.68 0 1.36 0 0 Z " fill="#01291B" transform="translate(730,400)"/>
<path d="M0 0 C4.75 -0.125 4.75 -0.125 7 1 C7 3.31 7 5.62 7 8 C5.0625 7.1875 5.0625 7.1875 3 6 C2.67 5.01 2.34 4.02 2 3 C1.34 2.67 0.68 2.34 0 2 C0 1.34 0 0.68 0 0 Z " fill="#03A870" transform="translate(605,396)"/>
<path d="M0 0 C1.2065625 0.0309375 1.2065625 0.0309375 2.4375 0.0625 C1.5625 4.8125 1.5625 4.8125 0.4375 7.0625 C-0.5525 7.0625 -1.5425 7.0625 -2.5625 7.0625 C-2.94383299 5.0710944 -3.27575582 3.06970923 -3.5625 1.0625 C-2.5625 0.0625 -2.5625 0.0625 0 0 Z " fill="#009965" transform="translate(330.5625,390.9375)"/>
<path d="M0 0 C1.2065625 0.0309375 1.2065625 0.0309375 2.4375 0.0625 C2.4375 1.3825 2.4375 2.7025 2.4375 4.0625 C-2.85480769 7.13942308 -2.85480769 7.13942308 -6.4375 6.75 C-7.13875 6.523125 -7.84 6.29625 -8.5625 6.0625 C-5.91511084 4.6018715 -4.66801666 4.0625 -1.5625 4.0625 C-1.5625 3.4025 -1.5625 2.7425 -1.5625 2.0625 C-2.2225 1.7325 -2.8825 1.4025 -3.5625 1.0625 C-2.5625 0.0625 -2.5625 0.0625 0 0 Z " fill="#010F0A" transform="translate(974.5625,449.9375)"/>
<path d="M0 0 C3.63 0 7.26 0 11 0 C9.02 0.99 9.02 0.99 7 2 C6.2575 2.391875 5.515 2.78375 4.75 3.1875 C0.8738185 4.33273544 -2.02921921 3.67301369 -6 3 C-6 2.67 -6 2.34 -6 2 C-4.02 2 -2.04 2 0 2 C0 1.34 0 0.68 0 0 Z " fill="#01120D" transform="translate(968,463)"/>
<path d="M0 0 C-0.66 1.32 -1.32 2.64 -2 4 C-2.33 3.34 -2.66 2.68 -3 2 C-4.32 2 -5.64 2 -7 2 C-7 2.66 -7 3.32 -7 4 C-7.99 3.67 -8.98 3.34 -10 3 C-9.67 2.01 -9.34 1.02 -9 0 C-5.8033 -1.37001429 -3.30096158 -0.8252404 0 0 Z " fill="#00271A" transform="translate(342,428)"/>
<path d="M0 0 C0.33 0.66 0.66 1.32 1 2 C1.99 2 2.98 2 4 2 C4 2.99 4 3.98 4 5 C3.34 5 2.68 5 2 5 C2 5.66 2 6.32 2 7 C1.34 7 0.68 7 0 7 C-0.33 7.66 -0.66 8.32 -1 9 C-1.66 7.35 -2.32 5.7 -3 4 C-2.34 3.67 -1.68 3.34 -1 3 C-0.67 2.01 -0.34 1.02 0 0 Z " fill="#004D33" transform="translate(472,467)"/>
<path d="M0 0 C2.64 0.33 5.28 0.66 8 1 C7.67 2.32 7.34 3.64 7 5 C4.69 4.67 2.38 4.34 0 4 C0 2.68 0 1.36 0 0 Z " fill="#065C3F" transform="translate(888,437)"/>
<path d="M0 0 C1.2077558 3.62326739 0.54311128 4.64146369 -1 8 C-3.31 7.67 -5.62 7.34 -8 7 C-7.67 5.68 -7.34 4.36 -7 3 C-6.34 3 -5.68 3 -5 3 C-5 3.66 -5 4.32 -5 5 C-3.35 3.35 -1.7 1.7 0 0 Z " fill="#003623" transform="translate(339,417)"/>
<path d="M0 0 C-1.0625 1.5 -1.0625 1.5 -3 3 C-6.6875 3.1875 -6.6875 3.1875 -10 3 C-10.33 2.34 -10.66 1.68 -11 1 C-6.87831311 -0.62950412 -4.29299643 -1.26264601 0 0 Z " fill="#00130D" transform="translate(672,464)"/>
<path d="M0 0 C3 1 3 1 4.1875 3.0625 C4.455625 3.701875 4.72375 4.34125 5 5 C2.69 5 0.38 5 -2 5 C-2.33 4.01 -2.66 3.02 -3 2 C-2.01 2 -1.02 2 0 2 C0 1.34 0 0.68 0 0 Z " fill="#008356" transform="translate(353,424)"/>
<path d="M0 0 C1.95979427 0.28168297 3.91782378 0.57566717 5.875 0.875 C7.51082031 1.11863281 7.51082031 1.11863281 9.1796875 1.3671875 C12 2 12 2 14 4 C10.95016004 5.52491998 8.3576631 5.23562548 5 5 C3.1875 3.625 3.1875 3.625 2 2 C1.34 1.34 0.68 0.68 0 0 Z " fill="#032B1D" transform="translate(887,504)"/>
<path d="M0 0 C2.31 0 4.62 0 7 0 C7.33 1.32 7.66 2.64 8 4 C5.36 3.67 2.72 3.34 0 3 C0 2.01 0 1.02 0 0 Z " fill="#001B12" transform="translate(333,473)"/>
<path d="M0 0 C1.4606285 2.64738916 2 3.89448334 2 7 C0.35 6.67 -1.3 6.34 -3 6 C-2.625 3.5625 -2.625 3.5625 -2 1 C-1.34 0.67 -0.68 0.34 0 0 Z " fill="#01150E" transform="translate(846,424)"/>
<path d="M0 0 C0.33 1.65 0.66 3.3 1 5 C-0.32 5.33 -1.64 5.66 -3 6 C-3.66 5.01 -4.32 4.02 -5 3 C-2.25 0 -2.25 0 0 0 Z " fill="#000906" transform="translate(967,400)"/>
<path d="M0 0 C0.66 0.33 1.32 0.66 2 1 C2.4140625 3.06640625 2.4140625 3.06640625 2.625 5.5625 C2.69976563 6.38878906 2.77453125 7.21507812 2.8515625 8.06640625 C2.92503906 9.02353516 2.92503906 9.02353516 3 10 C1.68 9.67 0.36 9.34 -1 9 C-1 7.35 -1 5.7 -1 4 C-0.34 4 0.32 4 1 4 C0.67 2.68 0.34 1.36 0 0 Z " fill="#086E4B" transform="translate(894,444)"/>
<path d="M0 0 C0 0.66 0 1.32 0 2 C-2.31 2 -4.62 2 -7 2 C-7 2.66 -7 3.32 -7 4 C-7.99 3.67 -8.98 3.34 -10 3 C-10 2.34 -10 1.68 -10 1 C-6.78548731 -0.60725635 -3.56387464 -0.05748185 0 0 Z " fill="#028156" transform="translate(640,415)"/>
<path d="M0 0 C0.66 0 1.32 0 2 0 C2.33 1.65 2.66 3.3 3 5 C1.68 5.33 0.36 5.66 -1 6 C-1.625 4.125 -1.625 4.125 -2 2 C-1.34 1.34 -0.68 0.68 0 0 Z " fill="#000B07" transform="translate(663,400)"/>
<path d="M0 0 C4.75 0.75 4.75 0.75 7 3 C7 3.99 7 4.98 7 6 C5.68 6 4.36 6 3 6 C2.67 5.01 2.34 4.02 2 3 C1.34 2.67 0.68 2.34 0 2 C0 1.34 0 0.68 0 0 Z " fill="#002A1B" transform="translate(335,453)"/>
<path d="M0 0 C2.31 0.33 4.62 0.66 7 1 C6.01 1.33 5.02 1.66 4 2 C4 2.66 4 3.32 4 4 C4.66 4 5.32 4 6 4 C6 4.66 6 5.32 6 6 C4.35 6.33 2.7 6.66 1 7 C1.20625 6.401875 1.4125 5.80375 1.625 5.1875 C2.30671915 2.71549154 2.30671915 2.71549154 0 0 Z " fill="#078B5E" transform="translate(782,370)"/>
<path d="M0 0 C2.97 0.495 2.97 0.495 6 1 C5.67 1.99 5.34 2.98 5 4 C3.35 4 1.7 4 0 4 C0 2.68 0 1.36 0 0 Z " fill="#09593E" transform="translate(1013,416)"/>
<path d="M0 0 C0.33 1.98 0.66 3.96 1 6 C0.01 5.67 -0.98 5.34 -2 5 C-2 4.34 -2 3.68 -2 3 C-3.32 2.67 -4.64 2.34 -6 2 C-2.25 0 -2.25 0 0 0 Z " fill="#00150E" transform="translate(675,449)"/>
<path d="M0 0 C2.375 -0.125 2.375 -0.125 5 0 C7 2 7 2 7 5 C6.01 5 5.02 5 4 5 C4 4.01 4 3.02 4 2 C2.68 2 1.36 2 0 2 C0 1.34 0 0.68 0 0 Z " fill="#000906" transform="translate(853,427)"/>
<path d="M0 0 C2.31 0 4.62 0 7 0 C7 0.66 7 1.32 7 2 C4.69 2.66 2.38 3.32 0 4 C0 2.68 0 1.36 0 0 Z " fill="#00DD92" transform="translate(418,523)"/>
<path d="M0 0 C0.99 0.66 1.98 1.32 3 2 C2.34 3.32 1.68 4.64 1 6 C0.34 6 -0.32 6 -1 6 C-1.625 4.125 -1.625 4.125 -2 2 C-1.34 1.34 -0.68 0.68 0 0 Z " fill="#03B477" transform="translate(558,429)"/>
<path d="M0 0 C1.98 0.99 3.96 1.98 6 3 C6.33 2.34 6.66 1.68 7 1 C7 2.32 7 3.64 7 5 C4.125 4.6875 4.125 4.6875 1 4 C0.34 3.01 -0.32 2.02 -1 1 C-0.67 0.67 -0.34 0.34 0 0 Z " fill="#00D18A" transform="translate(349,405)"/>
<path d="M0 0 C1.65 0 3.3 0 5 0 C5 0.66 5 1.32 5 2 C5.66 2.33 6.32 2.66 7 3 C3.98968256 3.93423645 3.13349732 4.04449911 0 3 C0 2.01 0 1.02 0 0 Z " fill="#049363" transform="translate(635,381)"/>
<path d="M0 0 C0.66 1.32 1.32 2.64 2 4 C1.01 5.485 1.01 5.485 0 7 C-0.99 7 -1.98 7 -3 7 C-2.67 5.68 -2.34 4.36 -2 3 C-1.34 3 -0.68 3 0 3 C0 2.01 0 1.02 0 0 Z " fill="#02A06A" transform="translate(599,441)"/>
<path d="M0 0 C2.97 0.495 2.97 0.495 6 1 C5.01 2.485 5.01 2.485 4 4 C2.68 4 1.36 4 0 4 C0 2.68 0 1.36 0 0 Z " fill="#05A36E" transform="translate(712,416)"/>
<path d="M0 0 C0.66 0 1.32 0 2 0 C2 0.66 2 1.32 2 2 C3.32 2.33 4.64 2.66 6 3 C5.01 3 4.02 3 3 3 C3 3.66 3 4.32 3 5 C2.01 5 1.02 5 0 5 C-0.5625 3.0625 -0.5625 3.0625 -1 1 C-0.67 0.67 -0.34 0.34 0 0 Z " fill="#037951" transform="translate(639,391)"/>
<path d="M0 0 C1.98 0 3.96 0 6 0 C5.67 0.99 5.34 1.98 5 3 C3.02 3 1.04 3 -1 3 C-0.67 2.01 -0.34 1.02 0 0 Z " fill="#087852" transform="translate(928,387)"/>
<path d="M0 0 C3.3 0 6.6 0 10 0 C9.67 0.99 9.34 1.98 9 3 C7.35 3 5.7 3 4 3 C4 2.34 4 1.68 4 1 C2.68 0.67 1.36 0.34 0 0 Z " fill="#01432D" transform="translate(655,380)"/>
<path d="M0 0 C2.31 0.66 4.62 1.32 7 2 C6.67 2.66 6.34 3.32 6 4 C3.69 4 1.38 4 -1 4 C-0.67 2.68 -0.34 1.36 0 0 Z " fill="#003A26" transform="translate(486,479)"/>
<path d="M0 0 C0.99 0.33 1.98 0.66 3 1 C3 2.65 3 4.3 3 6 C2.34 6 1.68 6 1 6 C0.87625 5.360625 0.7525 4.72125 0.625 4.0625 C0.315625 3.0415625 0.315625 3.0415625 0 2 C-0.66 1.67 -1.32 1.34 -2 1 C-1.34 0.67 -0.68 0.34 0 0 Z " fill="#074933" transform="translate(967,457)"/>
<path d="M0 0 C2 1.375 2 1.375 4 3 C4 3.66 4 4.32 4 5 C2.35 5.33 0.7 5.66 -1 6 C-0.67 4.02 -0.34 2.04 0 0 Z " fill="#002619" transform="translate(349,432)"/>
<path d="M0 0 C0.66 0 1.32 0 2 0 C2 1.65 2 3.3 2 5 C0.68 5 -0.64 5 -2 5 C-1.125 1.125 -1.125 1.125 0 0 Z " fill="#002418" transform="translate(543,389)"/>
</svg>
